<svg xmlns:mydata="http://www.w3.org/2000/svg" mydata:contrastcolor="11111f" mydata:template="Contrast" mydata:presentation="2.5" mydata:layouttype="undefined" mydata:specialfontid="undefined" mydata:id1="299" mydata:id2="027" mydata:companyname="Sylwia Łaboszczak" mydata:companytagline="UIT-soft" version="1.1" xmlns="http://www.w3.org/2000/svg" xmlns:xlink="http://www.w3.org/1999/xlink" viewBox="0 0 550 470"><g fill="none" fill-rule="none" stroke="none" stroke-width="1" stroke-linecap="butt" stroke-linejoin="miter" stroke-miterlimit="10" stroke-dasharray="" stroke-dashoffset="0" font-family="none" font-weight="none" font-size="none" text-anchor="none" style="mix-blend-mode: normal"><g data-paper-data="{&quot;isGlobalGroup&quot;:true,&quot;bounds&quot;:{&quot;x&quot;:113.42072452924006,&quot;y&quot;:115,&quot;width&quot;:323.15855094151993,&quot;height&quot;:240}}"><g data-paper-data="{&quot;isSecondaryText&quot;:true}" fill="#f277c6" fill-rule="nonzero"><path d="M195.15977,340.84155c0,-0.16708 0.02954,-0.32296 0.08863,-0.46762c0.05909,-0.14467 0.13957,-0.271 0.24145,-0.37899c0.10188,-0.10799 0.22108,-0.19255 0.35759,-0.25368c0.13652,-0.06113 0.28424,-0.09169 0.44317,-0.09169c0.15893,0 0.30665,0.03056 0.44317,0.09169c0.13652,0.06113 0.25673,0.14569 0.36065,0.25368c0.10392,0.10799 0.18542,0.23432 0.24451,0.37899c0.05909,0.14467 0.08863,0.30054 0.08863,0.46762v4.68234c0,0.53792 -0.09475,1.00758 -0.28424,1.40898c-0.18949,0.4014 -0.45438,0.73658 -0.79465,1.00554c-0.34027,0.26896 -0.74473,0.47068 -1.21337,0.60516c-0.46864,0.13448 -0.98211,0.20172 -1.5404,0.20172c-0.55014,0 -1.05852,-0.06622 -1.52512,-0.19866c-0.4666,-0.13244 -0.87004,-0.33111 -1.21032,-0.59599c-0.34027,-0.26488 -0.60618,-0.59905 -0.79771,-1.00249c-0.19153,-0.40344 -0.2873,-0.87819 -0.2873,-1.42426v-4.68234c0,-0.16708 0.02954,-0.32296 0.08863,-0.46762c0.05909,-0.14467 0.13957,-0.271 0.24145,-0.37899c0.10188,-0.10799 0.22108,-0.19255 0.35759,-0.25368c0.13652,-0.06113 0.28424,-0.09169 0.44317,-0.09169c0.15893,0 0.30665,0.03056 0.44317,0.09169c0.13652,0.06113 0.25673,0.14569 0.36065,0.25368c0.10392,0.10799 0.18542,0.23432 0.24451,0.37899c0.05909,0.14467 0.08863,0.30054 0.08863,0.46762l0.00611,4.64566c0,0.29341 0.04483,0.54607 0.13448,0.75798c0.08965,0.21191 0.20681,0.3851 0.35148,0.51958c0.14467,0.13448 0.30971,0.23432 0.49513,0.29952c0.18542,0.0652 0.37389,0.0978 0.56543,0.0978c0.19561,0 0.38612,-0.0326 0.57154,-0.0978c0.18542,-0.0652 0.35148,-0.16504 0.49819,-0.29952c0.14671,-0.13448 0.2659,-0.30767 0.35759,-0.51958c0.09169,-0.21191 0.13754,-0.46457 0.13754,-0.75798z" data-paper-data="{&quot;glyphName&quot;:&quot;U&quot;,&quot;glyphIndex&quot;:0,&quot;firstGlyphOfWord&quot;:true,&quot;word&quot;:1}"></path><path d="M217.83282,347.33937c0,0.16708 -0.02954,0.32296 -0.08863,0.46762c-0.05909,0.14467 -0.14059,0.271 -0.24451,0.37899c-0.10392,0.10799 -0.22413,0.19255 -0.36065,0.25368c-0.13652,0.06113 -0.28424,0.09169 -0.44317,0.09169c-0.15893,0 -0.30665,-0.03056 -0.44317,-0.09169c-0.13652,-0.06113 -0.25572,-0.14569 -0.35759,-0.25368c-0.10188,-0.10799 -0.18236,-0.23432 -0.24145,-0.37899c-0.05909,-0.14467 -0.08863,-0.30054 -0.08863,-0.46762v-6.49782c0,-0.16708 0.02954,-0.32296 0.08863,-0.46762c0.05909,-0.14467 0.13957,-0.271 0.24145,-0.37899c0.10188,-0.10799 0.22108,-0.19255 0.35759,-0.25368c0.13652,-0.06113 0.28424,-0.09169 0.44317,-0.09169c0.15893,0 0.30665,0.03056 0.44317,0.09169c0.13652,0.06113 0.25673,0.14569 0.36065,0.25368c0.10392,0.10799 0.18542,0.23432 0.24451,0.37899c0.05909,0.14467 0.08863,0.30054 0.08863,0.46762z" data-paper-data="{&quot;glyphName&quot;:&quot;I&quot;,&quot;glyphIndex&quot;:1,&quot;word&quot;:1}"></path><path d="M234.29938,341.26944c-0.11818,0 -0.23025,-0.02139 -0.3362,-0.06418c-0.10595,-0.04279 -0.19866,-0.10086 -0.27813,-0.17421c-0.07947,-0.07335 -0.14263,-0.15893 -0.18949,-0.25673c-0.04686,-0.0978 -0.0703,-0.20172 -0.0703,-0.31175c0,-0.11003 0.02343,-0.21496 0.0703,-0.3148c0.04686,-0.09984 0.11003,-0.18644 0.18949,-0.25979c0.07947,-0.07335 0.17217,-0.13142 0.27813,-0.17421c0.10595,-0.04279 0.21802,-0.06418 0.3362,-0.06418h5.58091c0.11818,0 0.23025,0.02139 0.3362,0.06418c0.10595,0.04279 0.19866,0.10086 0.27813,0.17421c0.07947,0.07335 0.14263,0.15995 0.18949,0.25979c0.04686,0.09984 0.0703,0.20478 0.0703,0.3148c0,0.11003 -0.02343,0.21395 -0.0703,0.31175c-0.04686,0.0978 -0.11003,0.18338 -0.18949,0.25673c-0.07947,0.07335 -0.17217,0.13142 -0.27813,0.17421c-0.10595,0.04279 -0.21802,0.06418 -0.3362,0.06418h-1.63821v6.06993c0,0.16708 -0.02954,0.32296 -0.08863,0.46762c-0.05909,0.14467 -0.14059,0.271 -0.24451,0.37899c-0.10392,0.10799 -0.22413,0.19255 -0.36065,0.25368c-0.13652,0.06113 -0.28424,0.09169 -0.44317,0.09169c-0.15893,0 -0.30665,-0.03056 -0.44317,-0.09169c-0.13652,-0.06113 -0.25572,-0.14569 -0.35759,-0.25368c-0.10188,-0.10799 -0.18236,-0.23432 -0.24145,-0.37899c-0.05909,-0.14467 -0.08863,-0.30054 -0.08863,-0.46762v-6.06993z" data-paper-data="{&quot;glyphName&quot;:&quot;T&quot;,&quot;glyphIndex&quot;:2,&quot;word&quot;:1}"></path><path d="M252.54927,345.98235c-0.0978,0 -0.19255,-0.01834 -0.28424,-0.05501c-0.09169,-0.03668 -0.17116,-0.08762 -0.2384,-0.15282c-0.06724,-0.0652 -0.12124,-0.14161 -0.16199,-0.22923c-0.04075,-0.08762 -0.06113,-0.1844 -0.06113,-0.29035c0,-0.23636 0.08252,-0.4177 0.24756,-0.54403c0.16504,-0.12633 0.37797,-0.18949 0.63878,-0.18949h2.02331c0.08965,0 0.18644,0.01121 0.29035,0.03362c0.10392,0.02241 0.19968,0.06113 0.2873,0.11614c0.08762,0.05501 0.16097,0.12939 0.22006,0.22311c0.05909,0.09373 0.08863,0.21395 0.08863,0.36065c0,0.1304 -0.02547,0.24145 -0.07641,0.33314c-0.05094,0.09169 -0.11716,0.16606 -0.19866,0.22311c-0.0815,0.05705 -0.17523,0.09984 -0.28118,0.12837c-0.10595,0.02853 -0.21598,0.04279 -0.33009,0.04279z" data-paper-data="{&quot;glyphName&quot;:&quot;-&quot;,&quot;glyphIndex&quot;:3,&quot;word&quot;:1}"></path><path d="M274.37812,341.97241c0,0.19561 0.0652,0.36065 0.19561,0.49513c0.1304,0.13448 0.30054,0.25062 0.51041,0.34842c0.20987,0.0978 0.44725,0.18338 0.71213,0.25673c0.26488,0.07335 0.53181,0.14874 0.80077,0.22617c0.43197,0.1304 0.8242,0.26896 1.1767,0.41566c0.3525,0.14671 0.65406,0.32194 0.90468,0.52569c0.25062,0.20376 0.44419,0.44521 0.58071,0.72436c0.13652,0.27915 0.20478,0.61433 0.20478,1.00554c0,0.42789 -0.08456,0.81299 -0.25368,1.1553c-0.16912,0.34231 -0.41261,0.63368 -0.73047,0.87412c-0.31786,0.24043 -0.70194,0.42483 -1.15225,0.5532c-0.4503,0.12837 -0.95664,0.19255 -1.51901,0.19255c-0.28934,0 -0.58071,-0.01732 -0.87412,-0.05196c-0.29341,-0.03464 -0.57663,-0.08456 -0.84967,-0.14976c-0.27303,-0.0652 -0.52977,-0.14467 -0.7702,-0.2384c-0.24043,-0.09373 -0.4503,-0.19968 -0.62961,-0.31786c-0.17931,-0.11818 -0.3199,-0.24756 -0.42178,-0.38816c-0.10188,-0.14059 -0.15282,-0.29035 -0.15282,-0.44928c0,-0.10188 0.02139,-0.20172 0.06418,-0.29952c0.04279,-0.0978 0.0978,-0.18644 0.16504,-0.2659c0.06724,-0.07947 0.14263,-0.14365 0.22617,-0.19255c0.08354,-0.0489 0.16606,-0.07335 0.24756,-0.07335c0.07335,0 0.14467,0.01223 0.21395,0.03668c0.06928,0.02445 0.13957,0.054 0.21089,0.08863c0.07132,0.03464 0.14467,0.07233 0.22006,0.11309c0.07539,0.04075 0.15587,0.07743 0.24145,0.11003c0.28118,0.12633 0.59701,0.24043 0.94747,0.34231c0.35046,0.10188 0.71723,0.15282 1.10029,0.15282c0.20783,0 0.40446,-0.01936 0.58988,-0.05807c0.18542,-0.03871 0.34842,-0.0978 0.48902,-0.17727c0.14059,-0.07947 0.25164,-0.18236 0.33314,-0.30869c0.0815,-0.12633 0.12225,-0.27915 0.12225,-0.45845c0,-0.13448 -0.02445,-0.2547 -0.07335,-0.36065c-0.0489,-0.10595 -0.11614,-0.19866 -0.20172,-0.27813c-0.08558,-0.07947 -0.18542,-0.14874 -0.29952,-0.20783c-0.1141,-0.05909 -0.23432,-0.11105 -0.36065,-0.15587l-0.27507,-0.0978c-0.05298,-0.0163 -0.10392,-0.03362 -0.15282,-0.05196c-0.0489,-0.01834 -0.10188,-0.03566 -0.15893,-0.05196l-0.31786,-0.09169c-0.06928,-0.0163 -0.12837,-0.03158 -0.17727,-0.04585c-0.0489,-0.01426 -0.09271,-0.02853 -0.13142,-0.04279c-0.03871,-0.01426 -0.07641,-0.02853 -0.11309,-0.04279c-0.03668,-0.01426 -0.07947,-0.02954 -0.12837,-0.04585l-0.5746,-0.20172c-0.37084,-0.13448 -0.6887,-0.27507 -0.95358,-0.42178c-0.26488,-0.14671 -0.48087,-0.31175 -0.64795,-0.49513c-0.16708,-0.18338 -0.29035,-0.39223 -0.36982,-0.62655c-0.07947,-0.23432 -0.1192,-0.50634 -0.1192,-0.81605c0,-0.40751 0.08456,-0.77631 0.25368,-1.1064c0.16912,-0.33009 0.41159,-0.61127 0.72741,-0.84355c0.31582,-0.23228 0.69889,-0.41159 1.14919,-0.53792c0.4503,-0.12633 0.95664,-0.18949 1.51901,-0.18949c0.20376,0 0.42585,0.01324 0.66629,0.03973c0.24043,0.02649 0.48087,0.06622 0.7213,0.1192c0.24043,0.05298 0.4717,0.12124 0.69379,0.20478c0.2221,0.08354 0.41872,0.18134 0.58988,0.29341c0.17116,0.11207 0.30869,0.23941 0.41261,0.38204c0.10392,0.14263 0.15587,0.30156 0.15587,0.47679c0,0.10188 -0.01936,0.19561 -0.05807,0.28118c-0.03871,0.08558 -0.09067,0.15893 -0.15587,0.22006c-0.0652,0.06113 -0.14161,0.10901 -0.22923,0.14365c-0.08762,0.03464 -0.17829,0.05196 -0.27202,0.05196c-0.12225,0 -0.23432,-0.02649 -0.3362,-0.07947c-0.19153,-0.0978 -0.36982,-0.18134 -0.53486,-0.25062c-0.16504,-0.06928 -0.32907,-0.12633 -0.49207,-0.17116c-0.16301,-0.04483 -0.33111,-0.07743 -0.5043,-0.0978c-0.17319,-0.02038 -0.36371,-0.03056 -0.57154,-0.03056c-0.19561,0 -0.38816,0.01732 -0.57765,0.05196c-0.18949,0.03464 -0.35861,0.08965 -0.50736,0.16504c-0.14874,0.07539 -0.26896,0.17217 -0.36065,0.29035c-0.09169,0.11818 -0.13754,0.26285 -0.13754,0.434z" data-paper-data="{&quot;glyphName&quot;:&quot;S&quot;,&quot;glyphIndex&quot;:4,&quot;word&quot;:1}"></path><path d="M302.47113,344.09963c0,1.01064 0.16097,1.77371 0.4829,2.28921c0.32194,0.51551 0.82522,0.77326 1.50984,0.77326c0.6724,0 1.17364,-0.25673 1.50373,-0.7702c0.33009,-0.51347 0.49513,-1.27756 0.49513,-2.29227c0,-0.48902 -0.03973,-0.92404 -0.1192,-1.30506c-0.07947,-0.38103 -0.2007,-0.70194 -0.36371,-0.96275c-0.16301,-0.26081 -0.36982,-0.45947 -0.62044,-0.59599c-0.25062,-0.13652 -0.54913,-0.20478 -0.89551,-0.20478c-0.34231,0 -0.63878,0.06826 -0.8894,0.20478c-0.25062,0.13652 -0.45743,0.33518 -0.62044,0.59599c-0.16301,0.26081 -0.28424,0.58173 -0.36371,0.96275c-0.07947,0.38103 -0.1192,0.81605 -0.1192,1.30506zM300.09328,344.09963c0,-0.6724 0.09067,-1.29386 0.27202,-1.86438c0.18134,-0.57052 0.45336,-1.06157 0.81605,-1.47316c0.36269,-0.41159 0.81707,-0.73353 1.36314,-0.96581c0.54607,-0.23228 1.18587,-0.34842 1.91939,-0.34842c0.71315,0 1.34276,0.11207 1.88883,0.3362c0.54607,0.22413 1.00249,0.54098 1.36925,0.95053c0.36676,0.40955 0.64387,0.89959 0.83133,1.47011c0.18746,0.57052 0.28118,1.20217 0.28118,1.89494c0,0.68055 -0.09169,1.30608 -0.27507,1.8766c-0.18338,0.57052 -0.45845,1.06056 -0.82522,1.47011c-0.36676,0.40955 -0.82318,0.72843 -1.36925,0.95664c-0.54607,0.22821 -1.17975,0.34231 -1.90105,0.34231c-0.705,0 -1.32952,-0.11003 -1.87355,-0.33009c-0.54403,-0.22006 -1.00147,-0.53283 -1.3723,-0.9383c-0.37084,-0.40548 -0.651,-0.89348 -0.8405,-1.464c-0.18949,-0.57052 -0.28424,-1.20828 -0.28424,-1.91328z" data-paper-data="{&quot;glyphName&quot;:&quot;O&quot;,&quot;glyphIndex&quot;:5,&quot;word&quot;:1}"></path><path d="M334.56712,343.20106c0.11003,0 0.21293,0.02038 0.30869,0.06113c0.09577,0.04075 0.18033,0.0978 0.25368,0.17116c0.07335,0.07335 0.1304,0.15791 0.17116,0.25368c0.04075,0.09577 0.06113,0.19866 0.06113,0.30869c0,0.11003 -0.02038,0.21293 -0.06113,0.30869c-0.04075,0.09577 -0.0978,0.17931 -0.17116,0.25062c-0.07335,0.07132 -0.15791,0.12735 -0.25368,0.1681c-0.09577,0.04075 -0.19866,0.06113 -0.30869,0.06113h-2.76295l-0.00611,2.55512c0,0.16708 -0.02954,0.32296 -0.08863,0.46762c-0.05909,0.14467 -0.14059,0.271 -0.24451,0.37899c-0.10392,0.10799 -0.22413,0.19255 -0.36065,0.25368c-0.13652,0.06113 -0.28424,0.09169 -0.44317,0.09169c-0.15893,0 -0.30665,-0.03056 -0.44317,-0.09169c-0.13652,-0.06113 -0.25572,-0.14569 -0.35759,-0.25368c-0.10188,-0.10799 -0.18236,-0.23432 -0.24145,-0.37899c-0.05909,-0.14467 -0.08863,-0.30054 -0.08863,-0.46762v-6.55283c0,-0.19561 0.03871,-0.36473 0.11614,-0.50736c0.07743,-0.14263 0.18134,-0.25979 0.31175,-0.35148c0.1304,-0.09169 0.28322,-0.15995 0.45845,-0.20478c0.17523,-0.04483 0.35861,-0.06724 0.55014,-0.06724h3.78988c0.11003,0 0.21293,0.02139 0.30869,0.06418c0.09577,0.04279 0.18033,0.09984 0.25368,0.17116c0.07335,0.07132 0.1304,0.15587 0.17116,0.25368c0.04075,0.0978 0.06113,0.20172 0.06113,0.31175c0,0.11003 -0.02038,0.21293 -0.06113,0.30869c-0.04075,0.09577 -0.0978,0.17931 -0.17116,0.25062c-0.07335,0.07132 -0.15791,0.12735 -0.25368,0.1681c-0.09577,0.04075 -0.19866,0.06113 -0.30869,0.06113h-2.95244v1.95607z" data-paper-data="{&quot;glyphName&quot;:&quot;F&quot;,&quot;glyphIndex&quot;:6,&quot;word&quot;:1}"></path><path d="M353.7705,341.26944c-0.11818,0 -0.23025,-0.02139 -0.3362,-0.06418c-0.10595,-0.04279 -0.19866,-0.10086 -0.27813,-0.17421c-0.07947,-0.07335 -0.14263,-0.15893 -0.18949,-0.25673c-0.04686,-0.0978 -0.0703,-0.20172 -0.0703,-0.31175c0,-0.11003 0.02343,-0.21496 0.0703,-0.3148c0.04686,-0.09984 0.11003,-0.18644 0.18949,-0.25979c0.07947,-0.07335 0.17217,-0.13142 0.27813,-0.17421c0.10595,-0.04279 0.21802,-0.06418 0.3362,-0.06418h5.58091c0.11818,0 0.23025,0.02139 0.3362,0.06418c0.10595,0.04279 0.19866,0.10086 0.27813,0.17421c0.07947,0.07335 0.14263,0.15995 0.18949,0.25979c0.04686,0.09984 0.0703,0.20478 0.0703,0.3148c0,0.11003 -0.02343,0.21395 -0.0703,0.31175c-0.04686,0.0978 -0.11003,0.18338 -0.18949,0.25673c-0.07947,0.07335 -0.17217,0.13142 -0.27813,0.17421c-0.10595,0.04279 -0.21802,0.06418 -0.3362,0.06418h-1.63821v6.06993c0,0.16708 -0.02954,0.32296 -0.08863,0.46762c-0.05909,0.14467 -0.14059,0.271 -0.24451,0.37899c-0.10392,0.10799 -0.22413,0.19255 -0.36065,0.25368c-0.13652,0.06113 -0.28424,0.09169 -0.44317,0.09169c-0.15893,0 -0.30665,-0.03056 -0.44317,-0.09169c-0.13652,-0.06113 -0.25572,-0.14569 -0.35759,-0.25368c-0.10188,-0.10799 -0.18236,-0.23432 -0.24145,-0.37899c-0.05909,-0.14467 -0.08863,-0.30054 -0.08863,-0.46762v-6.06993z" data-paper-data="{&quot;glyphName&quot;:&quot;T&quot;,&quot;glyphIndex&quot;:7,&quot;lastGlyphOfWord&quot;:true,&quot;word&quot;:1}"></path></g><g data-paper-data="{&quot;isPrimaryText&quot;:true}" fill="#f277c6" fill-rule="nonzero"><path d="M136.31873,337.14883c-1.91716,1.05256 -3.28924,1.79498 -4.11625,2.22728c-0.82701,0.4323 -1.36268,0.71423 -1.60703,0.8458c-0.24434,0.13157 -0.32892,0.17856 -0.25374,0.14097c0.07518,-0.03759 0.03759,-0.03759 -0.11277,0c-0.15037,0.03759 -0.54507,0.20675 -1.18413,0.50748c-0.63905,0.30073 -1.76679,0.8458 -3.38322,1.63522c0.03759,-0.11277 -0.29133,-0.03759 -0.98677,0.22555c-0.69544,0.26314 -1.52245,0.57327 -2.48103,0.93038c-0.95858,0.35712 -1.92655,0.69544 -2.90393,1.01497c-0.97737,0.31953 -1.748,0.47929 -2.31187,0.47929c-0.30073,0.07518 -0.55447,0.06578 -0.76122,-0.02819c-0.20675,-0.09398 -0.4417,-0.17856 -0.70484,-0.25374c-0.22555,0 -0.46049,0 -0.70484,0c-0.24434,0 -0.46989,-0.02819 -0.67664,-0.08458c-0.20675,-0.05639 -0.37591,-0.16916 -0.50748,-0.33832c-0.13157,-0.16916 -0.19735,-0.4229 -0.19735,-0.76122c-0.03759,-0.63905 0.14097,-1.21232 0.53568,-1.7198c0.39471,-0.50748 0.78002,-1.00557 1.15593,-1.49425c2.29307,-2.5938 4.61433,-4.85868 6.96379,-6.79463c2.34946,-1.93595 4.81169,-3.62756 7.38669,-5.07483c2.575,-1.44727 5.29098,-2.72537 8.14792,-3.83431c2.85694,-1.10894 5.92063,-2.1521 9.19107,-3.12948c0.07518,-0.67664 -0.03759,-1.34389 -0.33832,-2.00174c-0.30073,-0.65785 -0.65785,-1.19352 -1.07135,-1.60703c-0.78942,-0.60146 -1.80438,-1.14653 -3.0449,-1.63522c-1.24051,-0.48869 -2.51862,-0.73303 -3.83431,-0.73303c-1.61643,-0.03759 -3.23285,0.0188 -4.84928,0.16916c-1.61643,0.15037 -3.27044,0.31953 -4.96205,0.50748c-0.52628,0.07518 -1.07135,0.12217 -1.63522,0.14097c-0.56387,0.0188 -1.09015,-0.06578 -1.57883,-0.25374c-0.15037,-0.03759 -0.30073,-0.09398 -0.4511,-0.16916c-0.15037,-0.07518 -0.31953,-0.15037 -0.50748,-0.22555c-0.33832,-0.11277 -0.62965,-0.18796 -0.874,-0.22555c-0.24434,-0.03759 -0.51688,-0.15037 -0.81761,-0.33832c-0.22555,-0.18796 -0.46989,-0.46989 -0.73303,-0.8458c-0.26314,-0.37591 -0.39471,-0.82701 -0.39471,-1.35329c0,-0.56387 0.11277,-1.15593 0.33832,-1.77619c0.22555,-0.62026 0.46989,-1.15593 0.73303,-1.60703c0.30073,-0.60146 0.61086,-1.10894 0.93038,-1.52245c0.31953,-0.4135 0.62965,-0.80821 0.93038,-1.18413c2.89453,-3.42081 6.25895,-6.24016 10.09327,-8.45804c0.97737,-0.63905 2.03933,-1.19352 3.18586,-1.66342c1.14653,-0.46989 2.35885,-0.79882 3.63696,-0.98677c0.30073,-0.07518 0.65785,-0.12217 1.07135,-0.14097c0.4135,-0.0188 0.78942,-0.04699 1.12774,-0.08458c0.75183,-0.07518 1.44727,-0.11277 2.08632,-0.11277c0.63905,0 1.18413,0.20675 1.63522,0.62026c0.15037,0.07518 0.28193,0.18796 0.39471,0.33832c0.11277,0.15037 0.31953,0.26314 0.62026,0.33832c0.07518,0.26314 0.08458,0.51688 0.02819,0.76122c-0.05639,0.24434 -0.12217,0.47929 -0.19735,0.70484c0.15037,0.07518 0.21615,0.06578 0.19735,-0.02819c-0.0188,-0.09398 0.0094,-0.10338 0.08458,-0.02819c-0.07518,0.4135 -0.16916,0.77062 -0.28193,1.07135c-0.11277,0.30073 -0.22555,0.65785 -0.33832,1.07135c-0.26314,0.67664 -0.48869,1.22172 -0.67664,1.63522c-0.11277,0.18796 -0.22555,0.38531 -0.33832,0.59206c-0.11277,0.20675 -0.18796,0.4229 -0.22555,0.64845c-0.26314,-0.07518 -0.39471,-0.04699 -0.39471,0.08458c0,0.13157 -0.03759,0.25374 -0.11277,0.36652c-0.18796,-0.03759 -0.36652,-0.02819 -0.53568,0.02819c-0.16916,0.05639 -0.34772,0.08458 -0.53568,0.08458c-0.11277,-0.03759 -0.18796,-0.06578 -0.22555,-0.08458c-0.03759,-0.0188 -0.11277,-0.0094 -0.22555,0.02819c-0.15037,0.03759 -0.28193,0.12217 -0.39471,0.25374c-0.11277,0.13157 -0.26314,0.14097 -0.4511,0.02819c-0.03759,-0.48869 -0.0188,-0.93978 0.05639,-1.35329c0.07518,-0.4135 0.17856,-0.81761 0.31013,-1.21232c0.13157,-0.39471 0.26314,-0.78942 0.39471,-1.18413c0.13157,-0.39471 0.23495,-0.79882 0.31013,-1.21232c-0.71423,0 -1.44727,0.07518 -2.19909,0.22555c-0.75183,0.15037 -1.44727,0.35712 -2.08632,0.62026c-0.52628,0.18796 -1.00557,0.4135 -1.43787,0.67664c-0.4323,0.26314 -0.91159,0.50748 -1.43787,0.73303c-1.95475,0.93978 -3.70274,1.93595 -5.24399,2.98851c-0.4135,0.22555 -0.78002,0.52628 -1.09955,0.90219c-0.31953,0.37591 -0.62965,0.75183 -0.93038,1.12774c-0.97737,1.01497 -1.90776,2.12391 -2.79115,3.32683c-0.8834,1.20292 -1.53185,2.55621 -1.94535,4.05986c0.33832,0.18796 0.67664,0.24434 1.01497,0.16916c1.65402,0.03759 3.37382,-0.02819 5.15941,-0.19735c1.78559,-0.16916 3.4678,-0.21615 5.04663,-0.14097c1.50365,0.07518 2.95092,0.24434 4.3418,0.50748c1.39088,0.26314 2.65958,0.65785 3.80612,1.18413c1.14653,0.52628 2.13331,1.22172 2.96032,2.08632c0.82701,0.8646 1.46606,1.93595 1.91716,3.21406c1.35329,-0.33832 2.56561,-0.60146 3.63696,-0.78942c1.07135,-0.18796 2.12391,-0.34772 3.15767,-0.47929c1.03376,-0.13157 2.13331,-0.24434 3.29864,-0.33832c1.16533,-0.09398 2.49982,-0.21615 4.00347,-0.36652c0,0.11277 -0.05639,0.15976 -0.16916,0.14097c-0.11277,-0.0188 -0.18796,0.0094 -0.22555,0.08458c0.07518,0.11277 0.21615,0.16916 0.4229,0.16916c0.20675,0 0.40411,-0.0188 0.59206,-0.05639c-0.33832,0.11277 -0.62965,0.23495 -0.874,0.36652c-0.24434,0.13157 -0.59206,0.21615 -1.04316,0.25374c0.07518,0.07518 0.19735,0.09398 0.36652,0.05639c0.16916,-0.03759 0.32892,-0.05639 0.47929,-0.05639c-0.22555,0.22555 -0.51688,0.33832 -0.874,0.33832c-0.35712,0 -0.74243,0.05639 -1.15593,0.16916c0.11277,0.07518 0.31953,0.07518 0.62026,0c-0.03759,0.03759 -0.05639,0.09398 -0.05639,0.16916c-0.4135,0.15037 -0.83641,0.25374 -1.26871,0.31013c-0.4323,0.05639 -0.91159,0.12217 -1.43787,0.19735c-1.35329,0.30073 -2.29307,0.49808 -2.81935,0.59206c-0.52628,0.09398 -0.874,0.15037 -1.04316,0.16916c-0.16916,0.0188 -0.27254,0.04699 -0.31013,0.08458c-0.03759,0.03759 -0.28193,0.13157 -0.73303,0.28193c-0.07518,0.03759 -0.15037,0.08458 -0.22555,0.14097c-0.07518,0.05639 -0.16916,0.08458 -0.28193,0.08458c-0.4135,0.18796 -0.8646,0.31953 -1.35329,0.39471c-0.48869,0.07518 -0.93978,0.20675 -1.35329,0.39471l-0.33832,0.22555c-0.18796,0.11277 -0.4135,0.18796 -0.67664,0.22555c-0.26314,0.03759 -0.4511,0.15037 -0.56387,0.33832c-0.18796,0.52628 -0.4135,1.04316 -0.67664,1.55064c-0.26314,0.50748 -0.54507,1.00557 -0.8458,1.49425c-0.22555,0.30073 -0.4323,0.58267 -0.62026,0.8458c-0.18796,0.26314 -0.4323,0.54507 -0.73303,0.8458c-0.4511,0.56387 -0.8834,1.05256 -1.2969,1.46606c-1.20292,1.20292 -2.48103,2.31187 -3.83431,3.32683c-0.15037,0.07518 -0.27254,0.17856 -0.36652,0.31013c-0.09398,0.13157 -0.23495,0.21615 -0.4229,0.25374c-0.07518,0.03759 -0.09398,0.07518 -0.05639,0.11277c0.03759,0.03759 0,0.09398 -0.11277,0.16916c-0.33832,0.18796 -0.64845,0.39471 -0.93038,0.62026c-0.28193,0.22555 -0.62965,0.4135 -1.04316,0.56387c-0.26314,0.33832 -0.62965,0.66725 -1.09955,0.98677c-0.46989,0.31953 -0.94918,0.62965 -1.43787,0.93038zM145.56619,324.63093c-0.07518,0 -0.13157,0.0094 -0.16916,0.02819c-0.03759,0.0188 -0.07518,0.02819 -0.11277,0.02819c0.18796,-0.07518 0.33832,-0.20675 0.4511,-0.39471c-1.39088,0.56387 -2.5938,1.04316 -3.60877,1.43787c-1.01497,0.39471 -1.93595,0.76122 -2.76296,1.09955c-0.82701,0.33832 -1.61643,0.69544 -2.36825,1.07135c-0.75183,0.37591 -1.55064,0.78942 -2.39645,1.24051c-0.8458,0.4511 -1.77619,0.99617 -2.79115,1.63522c-1.01497,0.63905 -2.21789,1.39088 -3.60877,2.25548c-1.35329,0.97737 -2.38705,1.7386 -3.10128,2.28367c-0.71423,0.54507 -1.3157,1.03376 -1.80438,1.46606c-0.48869,0.4323 -0.96798,0.8552 -1.43787,1.26871c-0.46989,0.4135 -1.09955,0.97737 -1.88896,1.69161c-0.18796,0.15037 -0.32892,0.32892 -0.4229,0.53568c-0.09398,0.20675 -0.21615,0.38531 -0.36652,0.53568c-0.22555,0.30073 0.20675,0.31953 1.2969,0.05639c1.09015,-0.26314 2.53741,-0.73303 4.3418,-1.40967c1.80438,-0.67664 3.81552,-1.53185 6.0334,-2.56561c2.21789,-1.03376 4.3418,-2.19909 6.37173,-3.49599c2.02993,-1.2969 3.81552,-2.68778 5.35676,-4.17263c1.54124,-1.48486 2.53741,-3.0167 2.98851,-4.59554zM158.36603,320.90939c-0.26314,0 -0.4135,0.0188 -0.4511,0.05639c0.07518,-0.03759 0.15976,-0.03759 0.25374,0c0.09398,0.03759 0.15976,0.0188 0.19735,-0.05639zM162.36951,320.06358h-0.11277zM162.48228,320.00719c-0.03759,0 -0.05639,0.0094 -0.05639,0.02819c0,0.0188 -0.0188,0.02819 -0.05639,0.02819c0.03759,0 0.05639,-0.0094 0.05639,-0.02819c0,-0.0188 0.0188,-0.02819 0.05639,-0.02819z" data-paper-data="{&quot;glyphName&quot;:&quot;S&quot;,&quot;glyphIndex&quot;:0,&quot;firstGlyphOfWord&quot;:true,&quot;word&quot;:1}"></path><path d="M168.62846,320.79661c-0.07518,0.11277 -0.34772,0.36652 -0.81761,0.76122c-0.46989,0.39471 -0.99617,0.81761 -1.57883,1.26871c-0.58267,0.4511 -1.14653,0.874 -1.69161,1.26871c-0.54507,0.39471 -0.91159,0.64845 -1.09955,0.76122c-0.18796,0.15037 -0.47929,0.27254 -0.874,0.36652c-0.39471,0.09398 -0.79882,0.02819 -1.21232,-0.19735c-1.12774,-0.03759 -2.02993,-0.37591 -2.70657,-1.01497c-0.11277,-0.18796 -0.17856,-0.4511 -0.19735,-0.78942c-0.0188,-0.33832 0.0094,-0.65785 0.08458,-0.95858c0.07518,-0.22555 0.15976,-0.46049 0.25374,-0.70484c0.09398,-0.24434 0.17856,-0.47929 0.25374,-0.70484c0.07518,-0.07518 0.11277,-0.15037 0.11277,-0.22555c0,-0.07518 0.0188,-0.13157 0.05639,-0.16916c0.03759,-0.07518 0.07518,-0.13157 0.11277,-0.16916c0.03759,-0.03759 0.07518,-0.09398 0.11277,-0.16916c0.07518,-0.15037 0.13157,-0.29133 0.16916,-0.4229c0.03759,-0.13157 0.11277,-0.27254 0.22555,-0.4229c0.11277,-0.22555 0.26314,-0.49808 0.4511,-0.81761c0.18796,-0.31953 0.38531,-0.64845 0.59206,-0.98677c0.20675,-0.33832 0.4135,-0.65785 0.62026,-0.95858c0.20675,-0.30073 0.36652,-0.54507 0.47929,-0.73303c0.18796,-0.22555 0.47929,-0.4229 0.874,-0.59206c0.39471,-0.16916 0.81761,-0.15976 1.26871,0.02819c0.37591,0.15037 0.66725,0.40411 0.874,0.76122c0.20675,0.35712 0.21615,0.70484 0.02819,1.04316l-0.28193,0.16916c-0.07518,0.11277 -0.16916,0.28193 -0.28193,0.50748c-0.11277,0.22555 -0.23495,0.4511 -0.36652,0.67664c-0.13157,0.22555 -0.25374,0.4417 -0.36652,0.64845c-0.11277,0.20675 -0.18796,0.32892 -0.22555,0.36652c-0.07518,0.26314 -0.18796,0.46049 -0.33832,0.59206c-0.15037,0.13157 -0.22555,0.32892 -0.22555,0.59206c-0.18796,0.26314 -0.32892,0.53568 -0.4229,0.81761c-0.09398,0.28193 -0.21615,0.59206 -0.36652,0.93038c0.07518,0.07518 0.16916,0.08458 0.28193,0.02819c0.11277,-0.05639 0.18796,-0.12217 0.22555,-0.19735c1.24051,-0.71423 2.39645,-1.50365 3.4678,-2.36825c1.07135,-0.8646 2.1521,-1.7292 3.24225,-2.5938c0.07518,-0.03759 0.11277,-0.07518 0.11277,-0.11277c0,-0.03759 0.03759,-0.09398 0.11277,-0.16916l0.33832,-0.16916c0,-0.26314 0.02819,-0.47929 0.08458,-0.64845c0.05639,-0.16916 0.12217,-0.34772 0.19735,-0.53568c0.37591,-0.18796 0.79882,-0.28193 1.26871,-0.28193c0.46989,0 0.91159,0.09398 1.32509,0.28193c0.22555,0.22555 0.36652,0.50748 0.4229,0.8458c0.05639,0.33832 0.05639,0.67664 0,1.01497c-0.05639,0.33832 -0.13157,0.66725 -0.22555,0.98677c-0.09398,0.31953 -0.15976,0.59206 -0.19735,0.81761c-0.37591,1.3157 -0.72363,2.49982 -1.04316,3.55238c-0.31953,1.05256 -0.64845,2.08632 -0.98677,3.10128c0.18796,0.03759 0.31953,0.0188 0.39471,-0.05639c0.07518,-0.07518 0.18796,-0.16916 0.33832,-0.28193c1.01497,-0.63905 1.87957,-1.18413 2.5938,-1.63522c0.71423,-0.4511 1.40028,-0.89279 2.05812,-1.32509c0.65785,-0.4323 1.36268,-0.8834 2.11451,-1.35329c0.75183,-0.46989 1.67281,-1.02436 2.76296,-1.66342c1.09015,-0.63905 2.18969,-1.26871 3.29864,-1.88896c1.10894,-0.62026 2.32126,-1.13714 3.63696,-1.55064c-0.03759,0.07518 -0.10338,0.12217 -0.19735,0.14097c-0.09398,0.0188 -0.17856,0.06578 -0.25374,0.14097c0.11277,0.07518 0.25374,0.05639 0.4229,-0.05639c0.16916,-0.11277 0.32892,-0.13157 0.47929,-0.05639c-0.07518,0.26314 -0.25374,0.4229 -0.53568,0.47929c-0.28193,0.05639 -0.57327,0.17856 -0.874,0.36652c-0.11277,0.15037 -0.27254,0.28193 -0.47929,0.39471c-0.20675,0.11277 -0.40411,0.20675 -0.59206,0.28193c0.03759,0.03759 0.05639,0.05639 0.05639,0.05639c-0.33832,0.22555 -0.72363,0.4417 -1.15593,0.64845c-0.4323,0.20675 -0.74243,0.46049 -0.93038,0.76122c-0.11277,0.03759 -0.18796,0.07518 -0.22555,0.11277c-0.03759,0.03759 -0.09398,0.03759 -0.16916,0c-0.4511,0.30073 -0.91159,0.61086 -1.38148,0.93038c-0.46989,0.31953 -0.93038,0.62965 -1.38148,0.93038c-0.4511,0.33832 -0.74243,0.55447 -0.874,0.64845c-0.13157,0.09398 -0.23495,0.16916 -0.31013,0.22555c-0.07518,0.05639 -0.18796,0.13157 -0.33832,0.22555c-0.15037,0.09398 -0.46989,0.31013 -0.95858,0.64845c-0.15037,0.18796 -0.27254,0.26314 -0.36652,0.22555c-0.09398,-0.03759 -0.34772,0.15037 -0.76122,0.56387c0,0 -0.16916,0.10338 -0.50748,0.31013c-0.33832,0.20675 -0.71423,0.4417 -1.12774,0.70484c-0.4135,0.26314 -0.80821,0.53568 -1.18413,0.81761c-0.37591,0.28193 -0.62026,0.49808 -0.73303,0.64845c-0.07518,0 -0.29133,0.13157 -0.64845,0.39471c-0.35712,0.26314 -0.74243,0.56387 -1.15593,0.90219c-0.4135,0.33832 -0.78002,0.66725 -1.09955,0.98677c-0.31953,0.31953 -0.49808,0.53568 -0.53568,0.64845c-0.11277,0.18796 -0.4323,0.46049 -0.95858,0.81761c-0.52628,0.35712 -0.93978,0.79882 -1.24051,1.32509c-0.33832,0.82701 -0.72363,1.67281 -1.15593,2.53741c-0.4323,0.8646 -0.874,1.69161 -1.32509,2.48103c-0.4511,0.78942 -0.8834,1.52245 -1.2969,2.19909c-0.4135,0.67664 -0.73303,1.24051 -0.95858,1.69161c-0.03759,0.03759 -0.24434,0.33832 -0.62026,0.90219c-0.37591,0.56387 -0.874,1.25931 -1.49425,2.08632c-0.62026,0.82701 -1.3063,1.7292 -2.05812,2.70657c-0.75183,0.97737 -1.49425,1.91716 -2.22728,2.81935c-0.73303,0.90219 -1.42847,1.69161 -2.08632,2.36825c-0.65785,0.67664 -1.17473,1.14653 -1.55064,1.40967c-0.52628,0.30073 -0.92099,0.56387 -1.18413,0.78942c-0.26314,0.22555 -0.60146,0.4135 -1.01497,0.56387c-0.37591,0.22555 -0.81761,0.4229 -1.32509,0.59206c-0.50748,0.16916 -1.00557,0.30073 -1.49425,0.39471c-0.48869,0.09398 -0.93038,0.13157 -1.32509,0.11277c-0.39471,-0.0188 -0.64845,-0.10338 -0.76122,-0.25374c0.07518,-0.07518 0.03759,-0.11277 -0.11277,-0.11277c-0.15037,0 -0.22555,-0.09398 -0.22555,-0.28193h-0.22555c-0.26314,-0.30073 -0.40411,-0.74243 -0.4229,-1.32509c-0.0188,-0.58267 0.0094,-1.11834 0.08458,-1.60703c-0.07518,-0.18796 0.0094,-0.56387 0.25374,-1.12774c0.24434,-0.56387 0.59206,-1.24051 1.04316,-2.02993c0.4511,-0.78942 0.95858,-1.63522 1.52245,-2.53741c0.56387,-0.90219 1.12774,-1.748 1.69161,-2.53741c0.56387,-0.78942 1.09015,-1.49425 1.57883,-2.11451c0.48869,-0.62026 0.8646,-1.06195 1.12774,-1.32509c0.4135,-0.48869 1.10894,-1.20292 2.08632,-2.1427c0.97737,-0.93978 2.01113,-1.90776 3.10128,-2.90393c1.09015,-0.99617 2.1521,-1.91716 3.18586,-2.76296c1.03376,-0.8458 1.83258,-1.43787 2.39645,-1.77619c-0.03759,0 -0.04699,-0.0094 -0.02819,-0.02819c0.0188,-0.0188 0.06578,-0.02819 0.14097,-0.02819c-0.03759,0 -0.05639,0.0094 -0.05639,0.02819c0,0.0188 -0.0188,0.02819 -0.05639,0.02819c0.03759,-0.03759 0.07518,-0.05639 0.11277,-0.05639h0.05639l2.31187,-1.52245c0.60146,-1.3157 1.15593,-2.5844 1.66342,-3.80612c0.50748,-1.22172 0.94918,-2.54681 1.32509,-3.97528zM158.19687,336.81051c-0.4135,0.33832 -0.97737,0.874 -1.69161,1.60703c-0.71423,0.73303 -1.48486,1.58823 -2.31187,2.56561c-0.82701,0.97737 -1.66342,2.02053 -2.50922,3.12948c-0.8458,1.10894 -1.59763,2.1803 -2.25548,3.21406c-0.65785,1.03376 -1.16533,1.98294 -1.52245,2.84754c-0.35712,0.8646 -0.46049,1.54124 -0.31013,2.02993c0,0.26314 0.05639,0.4323 0.16916,0.50748c0.26314,0.03759 0.47929,0.0188 0.64845,-0.05639c0.16916,-0.07518 0.34772,-0.16916 0.53568,-0.28193c0.30073,-0.07518 0.51688,-0.18796 0.64845,-0.33832c0.13157,-0.15037 0.34772,-0.28193 0.64845,-0.39471c0.30073,-0.33832 0.60146,-0.66725 0.90219,-0.98677c0.30073,-0.31953 0.60146,-0.64845 0.90219,-0.98677c0.33832,-0.33832 0.67664,-0.71423 1.01497,-1.12774c0.33832,-0.4135 0.65785,-0.82701 0.95858,-1.24051l1.35329,-1.52245l1.86077,-2.87573c0.03759,-0.03759 0.05639,-0.07518 0.05639,-0.11277c0,-0.03759 0.03759,-0.09398 0.11277,-0.16916l0.56387,-0.78942c0.11277,-0.15037 0.4511,-0.65785 1.01497,-1.52245c0.56387,-0.8646 1.17473,-1.81378 1.83258,-2.84754c0.65785,-1.03376 1.26871,-2.03933 1.83258,-3.0167c0.56387,-0.97737 0.92099,-1.67281 1.07135,-2.08632z" data-paper-data="{&quot;glyphName&quot;:&quot;y&quot;,&quot;glyphIndex&quot;:1,&quot;word&quot;:1}" fill="#f277c6"></path><path d="M194.34091,294.68945c0.18796,0.18796 0.31953,0.33832 0.39471,0.4511c0.07518,0.11277 0.07518,0.31953 0,0.62026c0,0.26314 -0.06578,0.51688 -0.19735,0.76122c-0.13157,0.24434 -0.25374,0.46049 -0.36652,0.64845c-0.07518,0.33832 -0.17856,0.62965 -0.31013,0.874c-0.13157,0.24434 -0.23495,0.55447 -0.31013,0.93038c-0.37591,0.97737 -0.74243,1.96415 -1.09955,2.96032c-0.35712,0.99617 -0.74243,1.92655 -1.15593,2.79115c-0.4135,0.52628 -0.72363,1.07135 -0.93038,1.63522c-0.20675,0.56387 -0.40411,1.14653 -0.59206,1.748c-0.97737,2.36825 -1.95475,4.7741 -2.93212,7.21753c-0.97737,2.44343 -1.89836,4.96205 -2.76296,7.55585c-0.11277,0.67664 -0.29133,1.35329 -0.53568,2.02993c-0.24434,0.67664 -0.4417,1.37208 -0.59206,2.08632c0,0.26314 -0.03759,0.48869 -0.11277,0.67664c-0.18796,0.60146 -0.26314,1.24051 -0.22555,1.91716c-0.18796,0 -0.31953,0.06578 -0.39471,0.19735c-0.07518,0.13157 -0.18796,0.21615 -0.33832,0.25374c-0.30073,0 -0.49808,-0.12217 -0.59206,-0.36652c-0.09398,-0.24434 -0.25374,-0.34772 -0.47929,-0.31013c-0.07518,-0.18796 -0.17856,-0.33832 -0.31013,-0.4511c-0.13157,-0.11277 -0.21615,-0.28193 -0.25374,-0.50748c0.03759,-0.52628 0.11277,-1.09015 0.22555,-1.69161c0.11277,-0.60146 0.24434,-1.12774 0.39471,-1.57883c0.26314,-1.61643 0.62026,-3.14827 1.07135,-4.59554c0.4511,-1.44727 0.90219,-2.84754 1.35329,-4.20083c-0.03759,0 -0.07518,0.0188 -0.11277,0.05639l0.05639,-0.05639v-0.11277c0.15037,-0.07518 0.24434,-0.19735 0.28193,-0.36652c0.03759,-0.16916 0.09398,-0.32892 0.16916,-0.47929c0.15037,-0.52628 0.37591,-1.19352 0.67664,-2.00174c0.30073,-0.80821 0.62026,-1.63522 0.95858,-2.48103c0.33832,-0.8458 0.66725,-1.66342 0.98677,-2.45283c0.31953,-0.78942 0.57327,-1.40967 0.76122,-1.86077v-0.05639c0.4511,-0.93978 0.8552,-1.89836 1.21232,-2.87573c0.35712,-0.97737 0.72363,-1.97354 1.09955,-2.98851c0.30073,-0.75183 0.58267,-1.53185 0.8458,-2.34006c0.26314,-0.80821 0.50748,-1.56944 0.73303,-2.28367c0.18796,-0.56387 0.31953,-1.12774 0.39471,-1.69161c0.07518,-0.22555 0.34772,-0.4135 0.81761,-0.56387c0.46989,-0.15037 0.8552,-0.18796 1.15593,-0.11277c0.30073,0.07518 0.51688,0.18796 0.64845,0.33832c0.13157,0.15037 0.25374,0.37591 0.36652,0.67664z" data-paper-data="{&quot;glyphName&quot;:&quot;l&quot;,&quot;glyphIndex&quot;:2,&quot;word&quot;:1}"></path><path d="M217.51595,313.74824c-0.18796,0.4135 -0.4323,0.81761 -0.73303,1.21232c-0.30073,0.39471 -0.58267,0.8552 -0.8458,1.38148c-0.52628,0.78942 -1.09015,1.64462 -1.69161,2.56561c-0.60146,0.92099 -1.20292,1.83258 -1.80438,2.73477c-0.60146,0.90219 -1.19352,1.7386 -1.77619,2.50922c-0.58267,0.77062 -1.09955,1.38148 -1.55064,1.83258c-0.52628,0.48869 -0.95858,0.93038 -1.2969,1.32509c-0.33832,0.39471 -0.69544,0.69544 -1.07135,0.90219c-0.37591,0.20675 -0.83641,0.27254 -1.38148,0.19735c-0.54507,-0.07518 -1.2875,-0.33832 -2.22728,-0.78942c-0.11277,-0.07518 -0.24434,-0.20675 -0.39471,-0.39471c-0.15037,-0.18796 -0.29133,-0.38531 -0.4229,-0.59206c-0.13157,-0.20675 -0.26314,-0.40411 -0.39471,-0.59206c-0.13157,-0.18796 -0.21615,-0.33832 -0.25374,-0.4511c-0.52628,-0.71423 -0.8834,-1.50365 -1.07135,-2.36825c-0.18796,-0.8646 -0.37591,-1.7104 -0.56387,-2.53741c-0.22555,0 -0.38531,0.11277 -0.47929,0.33832c-0.09398,0.22555 -0.19735,0.4135 -0.31013,0.56387c-0.07518,0.4135 -0.28193,0.78942 -0.62026,1.12774c-0.33832,0.33832 -0.65785,0.69544 -0.95858,1.07135c-0.18796,0.30073 -0.39471,0.62965 -0.62026,0.98677c-0.22555,0.35712 -0.48869,0.74243 -0.78942,1.15593c-0.60146,0.71423 -1.20292,1.2969 -1.80438,1.748c-0.4135,0.37591 -0.82701,0.74243 -1.24051,1.09955c-0.4135,0.35712 -1.14653,0.4229 -2.19909,0.19735c-0.48869,-0.15037 -0.8552,-0.32892 -1.09955,-0.53568c-0.24434,-0.20675 -0.46049,-0.57327 -0.64845,-1.09955c0,-0.15037 -0.02819,-0.31013 -0.08458,-0.47929c-0.05639,-0.16916 -0.04699,-0.34772 0.02819,-0.53568c-0.18796,-0.63905 -0.24434,-1.24051 -0.16916,-1.80438c0.07518,-0.56387 0.13157,-1.12774 0.16916,-1.69161c0.03759,-0.48869 0.12217,-1.03376 0.25374,-1.63522c0.13157,-0.60146 0.29133,-1.21232 0.47929,-1.83258c0.18796,-0.62026 0.36652,-1.24051 0.53568,-1.86077c0.16916,-0.62026 0.31013,-1.21232 0.4229,-1.77619c0.03759,-0.26314 0.06578,-0.50748 0.08458,-0.73303c0.0188,-0.22555 0.05639,-0.39471 0.11277,-0.50748c0.05639,-0.11277 0.17856,-0.18796 0.36652,-0.22555c0.18796,-0.03759 0.48869,-0.0188 0.90219,0.05639c0.48869,0.22555 0.96798,0.54507 1.43787,0.95858c0.46989,0.4135 0.64845,0.93978 0.53568,1.57883c0,0.15037 -0.06578,0.31013 -0.19735,0.47929c-0.13157,0.16916 -0.21615,0.31013 -0.25374,0.4229c-0.22555,0.63905 -0.48869,1.2875 -0.78942,1.94535c-0.30073,0.65785 -0.57327,1.33449 -0.81761,2.02993c-0.24434,0.69544 -0.46049,1.40967 -0.64845,2.1427c-0.18796,0.73303 -0.28193,1.49425 -0.28193,2.28367c0.97737,-0.93978 1.87017,-2.02053 2.67838,-3.24225c0.80821,-1.22172 1.70101,-2.35885 2.67838,-3.41141c0.30073,-0.33832 0.58267,-0.70484 0.8458,-1.09955c0.26314,-0.39471 0.60146,-0.70484 1.01497,-0.93038c0.07518,-0.07518 0.21615,-0.10338 0.4229,-0.08458c0.20675,0.0188 0.4229,0.02819 0.64845,0.02819c0,0.03759 0,0.0094 0,-0.08458c0,-0.09398 0.0188,-0.12217 0.05639,-0.08458c0.18796,-0.03759 0.33832,0 0.4511,0.11277c0.11277,0.11277 0.31953,0.20675 0.62026,0.28193c0.18796,-0.11277 0.4135,0.02819 0.67664,0.4229c0.26314,0.39471 0.52628,0.90219 0.78942,1.52245c0.26314,0.62026 0.54507,1.2969 0.8458,2.02993c0.30073,0.73303 0.59206,1.39088 0.874,1.97354c0.28193,0.58267 0.56387,1.03376 0.8458,1.35329c0.28193,0.31953 0.55447,0.38531 0.81761,0.19735c0.78942,-0.90219 1.37208,-1.54124 1.748,-1.91716c0.37591,-0.37591 0.63905,-0.63905 0.78942,-0.78942c0.15037,-0.15037 0.24434,-0.23495 0.28193,-0.25374c0.03759,-0.0188 0.12217,-0.10338 0.25374,-0.25374c0.13157,-0.15037 0.35712,-0.4417 0.67664,-0.874c0.31953,-0.4323 0.8552,-1.11834 1.60703,-2.05812c0.78942,-1.09015 1.61643,-2.1521 2.48103,-3.18586c0.8646,-1.03376 1.82318,-1.96415 2.87573,-2.79115c0.26314,0 0.4511,-0.0094 0.56387,-0.02819c0.11277,-0.0188 0.17856,-0.02819 0.19735,-0.02819c0.0188,0 0.02819,0.02819 0.02819,0.08458c0,0.05639 0.03759,0.19735 0.11277,0.4229c-0.03759,0.11277 -0.08458,0.20675 -0.14097,0.28193c-0.05639,0.07518 -0.10338,0.16916 -0.14097,0.28193c0.22555,0 0.4135,-0.09398 0.56387,-0.28193z" data-paper-data="{&quot;glyphName&quot;:&quot;w&quot;,&quot;glyphIndex&quot;:3,&quot;word&quot;:1}" fill="#f277c6"></path><path d="M218.86924,325.19479c0.11277,0.11277 0.4323,0.06578 0.95858,-0.14097c0.52628,-0.20675 1.17473,-0.48869 1.94535,-0.8458c0.77062,-0.35712 1.62582,-0.76122 2.56561,-1.21232c0.93978,-0.4511 1.87957,-0.8458 2.81935,-1.18413c0.26314,-0.07518 0.57327,-0.18796 0.93038,-0.33832c0.35712,-0.15037 0.62965,-0.28193 0.81761,-0.39471c0.30073,-0.18796 0.60146,-0.37591 0.90219,-0.56387c0.30073,-0.18796 0.65785,-0.31953 1.07135,-0.39471c0.15037,-0.03759 0.22555,-0.10338 0.22555,-0.19735c0,-0.09398 0.0188,-0.06578 0.05639,0.08458c0.07518,0.03759 0.13157,0.04699 0.16916,0.02819c0.03759,-0.0188 0.07518,-0.0094 0.11277,0.02819c0,0.15037 -0.09398,0.35712 -0.28193,0.62026l-0.39471,0.33832c-0.30073,0.26314 -0.62026,0.51688 -0.95858,0.76122c-0.33832,0.24434 -0.71423,0.46049 -1.12774,0.64845c-0.33832,0.30073 -0.74243,0.58267 -1.21232,0.8458c-0.46989,0.26314 -0.93038,0.50748 -1.38148,0.73303c-0.4135,0.15037 -1.00557,0.48869 -1.77619,1.01497c-0.77062,0.52628 -1.57883,1.07135 -2.42464,1.63522c-0.8458,0.56387 -1.62582,1.06195 -2.34006,1.49425c-0.71423,0.4323 -1.20292,0.59206 -1.46606,0.47929c-0.11277,0.11277 -0.18796,0.15976 -0.22555,0.14097c-0.03759,-0.0188 -0.11277,-0.02819 -0.22555,-0.02819c-0.60146,0 -1.11834,-0.06578 -1.55064,-0.19735c-0.4323,-0.13157 -0.79882,-0.40411 -1.09955,-0.81761c-0.11277,-0.4511 -0.11277,-0.90219 0,-1.35329c0.11277,-0.4511 0.26314,-0.95858 0.4511,-1.52245c0.11277,-0.30073 0.23495,-0.58267 0.36652,-0.8458c0.13157,-0.26314 0.23495,-0.54507 0.31013,-0.8458c0.15037,-0.30073 0.30073,-0.62026 0.4511,-0.95858c0.15037,-0.33832 0.28193,-0.65785 0.39471,-0.95858c0.4135,-0.8646 0.8458,-1.7386 1.2969,-2.62199c0.4511,-0.8834 0.93978,-1.70101 1.46606,-2.45283c0.30073,-0.18796 0.58267,-0.30073 0.8458,-0.33832c0.15037,-0.07518 0.31013,-0.06578 0.47929,0.02819c0.16916,0.09398 0.31013,0.10338 0.4229,0.02819c0.11277,0.15037 0.23495,0.28193 0.36652,0.39471c0.13157,0.11277 0.21615,0.26314 0.25374,0.4511c0.03759,0.26314 0.06578,0.46989 0.08458,0.62026c0.0188,0.15037 -0.0094,0.31953 -0.08458,0.50748c0.03759,0.26314 -0.03759,0.54507 -0.22555,0.8458c-0.07518,0.11277 -0.13157,0.23495 -0.16916,0.36652c-0.03759,0.13157 -0.09398,0.27254 -0.16916,0.4229c-0.03759,0.03759 -0.06578,0.04699 -0.08458,0.02819c-0.0188,-0.0188 -0.04699,-0.0094 -0.08458,0.02819c-0.07518,0.03759 -0.11277,0.09398 -0.11277,0.16916c0,0.07518 -0.03759,0.13157 -0.11277,0.16916c-0.26314,0.52628 -0.54507,1.07135 -0.8458,1.63522c-0.30073,0.56387 -0.58267,1.09955 -0.8458,1.60703c-0.26314,0.50748 -0.4511,0.94918 -0.56387,1.32509c-0.11277,0.37591 -0.11277,0.62026 0,0.73303zM221.1811,311.43638c-0.03759,-0.11277 0.05639,-0.31953 0.28193,-0.62026c0.22555,-0.30073 0.48869,-0.58267 0.78942,-0.8458c0.30073,-0.26314 0.60146,-0.4511 0.90219,-0.56387c0.30073,-0.11277 0.54507,-0.05639 0.73303,0.16916c0.07518,0 0.14097,0.0188 0.19735,0.05639c0.05639,0.03759 0.10338,0.05639 0.14097,0.05639c0.26314,0.30073 0.34772,0.66725 0.25374,1.09955c-0.09398,0.4323 -0.29133,0.72363 -0.59206,0.874c0.03759,0.07518 0.03759,0.12217 0,0.14097c-0.03759,0.0188 -0.05639,0.06578 -0.05639,0.14097c-0.11277,-0.07518 -0.15976,-0.03759 -0.14097,0.11277c0.0188,0.15037 -0.04699,0.18796 -0.19735,0.11277c0.03759,0.11277 -0.0094,0.22555 -0.14097,0.33832c-0.13157,0.11277 -0.19735,0.22555 -0.19735,0.33832c-0.07518,-0.03759 -0.11277,-0.04699 -0.11277,-0.02819c0,0.0188 -0.03759,0.02819 -0.11277,0.02819c-0.07518,0.18796 -0.23495,0.32892 -0.47929,0.4229c-0.24434,0.09398 -0.4229,0.21615 -0.53568,0.36652c-0.07518,0 -0.14097,0.0188 -0.19735,0.05639c-0.05639,0.03759 -0.15976,0.0188 -0.31013,-0.05639c-0.22555,-0.07518 -0.37591,-0.19735 -0.4511,-0.36652c-0.07518,-0.16916 -0.10338,-0.36652 -0.08458,-0.59206c0.0188,-0.22555 0.06578,-0.4511 0.14097,-0.67664c0.07518,-0.22555 0.13157,-0.4135 0.16916,-0.56387z" data-paper-data="{&quot;glyphName&quot;:&quot;i&quot;,&quot;glyphIndex&quot;:4,&quot;word&quot;:1}"></path><path d="M245.59665,321.92435c1.09015,-0.4135 1.7386,-0.53568 1.94535,-0.36652c0.20675,0.16916 0.10338,0.4229 -0.31013,0.76122c-0.11277,0.11277 -0.25374,0.18796 -0.4229,0.22555c-0.16916,0.03759 -0.31013,0.20675 -0.4229,0.50748c-0.56387,0.48869 -0.95858,0.79882 -1.18413,0.93038c-0.22555,0.13157 -0.37591,0.17856 -0.4511,0.14097c-0.60146,0.26314 -1.14653,0.60146 -1.63522,1.01497c-0.48869,0.4135 -0.98677,0.78942 -1.49425,1.12774c-0.50748,0.33832 -1.05256,0.60146 -1.63522,0.78942c-0.58267,0.18796 -1.26871,0.18796 -2.05812,0c-0.07518,0 -0.15976,-0.02819 -0.25374,-0.08458c-0.09398,-0.05639 -0.19735,-0.10338 -0.31013,-0.14097c-0.33832,-0.15037 -0.57327,-0.32892 -0.70484,-0.53568c-0.13157,-0.20675 -0.25374,-0.4417 -0.36652,-0.70484c-0.07518,-0.30073 -0.12217,-0.66725 -0.14097,-1.09955c-0.0188,-0.4323 0.0094,-0.874 0.08458,-1.32509c-0.07518,-0.03759 -0.12217,-0.02819 -0.14097,0.02819c-0.0188,0.05639 -0.04699,0.08458 -0.08458,0.08458c-0.07518,0.03759 -0.15037,0.08458 -0.22555,0.14097c-0.07518,0.05639 -0.16916,0.12217 -0.28193,0.19735c-0.18796,0.22555 -0.36652,0.4323 -0.53568,0.62026c-0.16916,0.18796 -0.38531,0.33832 -0.64845,0.4511c-0.07518,0.15037 -0.17856,0.26314 -0.31013,0.33832c-0.13157,0.07518 -0.23495,0.15037 -0.31013,0.22555c-0.03759,0 -0.04699,0.02819 -0.02819,0.08458c0.0188,0.05639 0.0094,0.08458 -0.02819,0.08458c-0.07518,0.03759 -0.18796,0.08458 -0.33832,0.14097c-0.15037,0.05639 -0.26314,0.14097 -0.33832,0.25374c-0.8646,0.60146 -1.78559,1.10894 -2.76296,1.52245c-0.26314,0.18796 -0.53568,0.34772 -0.81761,0.47929c-0.28193,0.13157 -0.55447,0.17856 -0.81761,0.14097c-0.18796,0 -0.34772,0 -0.47929,0c-0.13157,0 -0.29133,-0.03759 -0.47929,-0.11277c-0.30073,-0.03759 -0.60146,-0.06578 -0.90219,-0.08458c-0.30073,-0.0188 -0.54507,-0.14097 -0.73303,-0.36652c-0.4135,-0.26314 -0.52628,-0.75183 -0.33832,-1.46606c0,-0.03759 0.0188,-0.05639 0.05639,-0.05639c0.03759,0 0.05639,-0.03759 0.05639,-0.11277c0.03759,-0.4135 0.15976,-0.79882 0.36652,-1.15593c0.20675,-0.35712 0.4229,-0.68604 0.64845,-0.98677c0.30073,-0.52628 0.63905,-1.01497 1.01497,-1.46606c0.37591,-0.4511 0.73303,-0.92099 1.07135,-1.40967c0.30073,-0.26314 0.77062,-0.69544 1.40967,-1.2969c0.63905,-0.60146 1.3157,-1.21232 2.02993,-1.83258c0.71423,-0.62026 1.37208,-1.16533 1.97354,-1.63522c0.60146,-0.46989 1.01497,-0.72363 1.24051,-0.76122c0.4135,-0.18796 0.74243,-0.4229 0.98677,-0.70484c0.24434,-0.28193 0.62965,-0.49808 1.15593,-0.64845c0.03759,0 0.05639,-0.0094 0.05639,-0.02819c0,-0.0188 0.0188,-0.02819 0.05639,-0.02819c0.07518,0 0.15976,0.0094 0.25374,0.02819c0.09398,0.0188 0.17856,-0.0094 0.25374,-0.08458c0.22555,0.11277 0.48869,0.16916 0.78942,0.16916c0.15037,0.18796 0.31953,0.36652 0.50748,0.53568c0.18796,0.16916 0.28193,0.36652 0.28193,0.59206c0.11277,0.11277 0.13157,0.26314 0.05639,0.4511c-0.07518,0.18796 -0.18796,0.31953 -0.33832,0.39471c-0.11277,0.11277 -0.24434,0.15976 -0.39471,0.14097c-0.15037,-0.0188 -0.30073,0.0094 -0.4511,0.08458c-0.37591,0.15037 -0.73303,0.37591 -1.07135,0.67664l-0.67664,0.4511c0,0 -0.03759,0.03759 -0.11277,0.11277c-0.11277,0 -0.23495,0.02819 -0.36652,0.08458c-0.13157,0.05639 -0.23495,0.19735 -0.31013,0.4229c-0.30073,0.07518 -0.60146,0.21615 -0.90219,0.4229c-0.30073,0.20675 -0.60146,0.40411 -0.90219,0.59206c-0.18796,0.18796 -0.35712,0.34772 -0.50748,0.47929c-0.15037,0.13157 -0.31953,0.27254 -0.50748,0.4229c-0.30073,0.26314 -0.62026,0.54507 -0.95858,0.8458c-0.33832,0.30073 -0.65785,0.60146 -0.95858,0.90219c-0.18796,0.15037 -0.36652,0.32892 -0.53568,0.53568c-0.16916,0.20675 -0.38531,0.36652 -0.64845,0.47929c0,0.15037 -0.07518,0.28193 -0.22555,0.39471v0.05639c0,0.03759 0,0.05639 0,0.05639c-0.22555,0.11277 -0.40411,0.27254 -0.53568,0.47929c-0.13157,0.20675 -0.27254,0.40411 -0.4229,0.59206c-0.07518,0.33832 -0.22555,0.63905 -0.4511,0.90219c-0.22555,0.26314 -0.35712,0.54507 -0.39471,0.8458c0.37591,-0.11277 0.67664,-0.28193 0.90219,-0.50748c1.2781,-0.75183 2.49982,-1.55064 3.66515,-2.39645c1.16533,-0.8458 2.36825,-1.7386 3.60877,-2.67838c0.33832,-0.30073 0.66725,-0.54507 0.98677,-0.73303c0.31953,-0.18796 0.62965,-0.48869 0.93038,-0.90219h0.16916v-0.05639c0.03759,-0.11277 0.09398,-0.20675 0.16916,-0.28193c0.07518,-0.07518 0.13157,-0.18796 0.16916,-0.33832c0.03759,-0.07518 0.05639,-0.16916 0.05639,-0.28193c0,-0.11277 0.03759,-0.20675 0.11277,-0.28193c0.11277,-0.03759 0.24434,-0.05639 0.39471,-0.05639c0.15037,0 0.26314,0 0.33832,0h0.73303c0.15037,0.07518 0.35712,0.16916 0.62026,0.28193c0.26314,0.11277 0.39471,0.37591 0.39471,0.78942c-0.11277,0.33832 -0.27254,0.65785 -0.47929,0.95858c-0.20675,0.30073 -0.4229,0.62026 -0.64845,0.95858c-0.07518,0.33832 -0.20675,0.63905 -0.39471,0.90219v0.28193c-0.15037,0.07518 -0.26314,0.24434 -0.33832,0.50748c-0.03759,0.18796 -0.06578,0.33832 -0.08458,0.4511c-0.0188,0.11277 -0.08458,0.28193 -0.19735,0.50748l-0.33832,1.24051c0,0.48869 0.09398,0.77062 0.28193,0.8458c0.18796,0.07518 0.4229,0.05639 0.70484,-0.05639c0.28193,-0.11277 0.59206,-0.27254 0.93038,-0.47929c0.33832,-0.20675 0.63905,-0.36652 0.90219,-0.47929c0.63905,-0.22555 1.2969,-0.56387 1.97354,-1.01497c0.67664,-0.4511 1.2781,-0.82701 1.80438,-1.12774z" data-paper-data="{&quot;glyphName&quot;:&quot;a&quot;,&quot;glyphIndex&quot;:5,&quot;lastGlyphOfWord&quot;:true,&quot;word&quot;:1}" fill="#f277c6"></path><path d="M261.8361,324.91286c0.03759,-0.03759 0.05639,-0.05639 0.05639,-0.05639c0.03759,-0.07518 0.03759,-0.03759 0,0.11277c-0.03759,0.15037 -0.05639,0.26314 -0.05639,0.33832c0,0.07518 -0.02819,0.13157 -0.08458,0.16916c-0.05639,0.03759 -0.08458,0.09398 -0.08458,0.16916c-0.07518,-0.03759 -0.08458,-0.06578 -0.02819,-0.08458c0.05639,-0.0188 0.04699,-0.02819 -0.02819,-0.02819c-0.07518,0.26314 -0.20675,0.70484 -0.39471,1.32509c-0.18796,0.62026 -0.4135,1.3157 -0.67664,2.08632c-0.26314,0.77062 -0.53568,1.57883 -0.81761,2.42464c-0.28193,0.8458 -0.54507,1.62582 -0.78942,2.34006c-0.24434,0.71423 -0.46049,1.3157 -0.64845,1.80438c-0.18796,0.48869 -0.30073,0.75183 -0.33832,0.78942c1.57883,-0.4511 3.43021,-0.874 5.55412,-1.26871c2.12391,-0.39471 4.27601,-0.74243 6.45631,-1.04316c2.1803,-0.30073 4.27601,-0.54507 6.28715,-0.73303c2.01113,-0.18796 3.69335,-0.30073 5.04663,-0.33832c0.56387,-0.07518 1.33449,-0.11277 2.31187,-0.11277c0.97737,0 1.99234,0.02819 3.0449,0.08458c1.05256,0.05639 2.04873,0.14097 2.98851,0.25374c0.93978,0.11277 1.66342,0.24434 2.1709,0.39471c0.50748,0.15037 0.69544,0.31953 0.56387,0.50748c-0.13157,0.18796 -0.74243,0.37591 -1.83258,0.56387c-0.30073,0.07518 -0.63905,0.10338 -1.01497,0.08458c-0.37591,-0.0188 -0.75183,0.0094 -1.12774,0.08458c-1.09015,-0.07518 -2.02993,-0.07518 -2.81935,0c-0.11277,-0.03759 -0.24434,-0.03759 -0.39471,0c-0.15037,0.03759 -0.28193,0.03759 -0.39471,0c-1.3157,0.15037 -2.71597,0.25374 -4.20083,0.31013c-1.48486,0.05639 -3.07309,0.15976 -4.7647,0.31013c-1.69161,0.15037 -3.51479,0.37591 -5.46953,0.67664c-1.95475,0.30073 -4.05986,0.75183 -6.31534,1.35329c-0.90219,0.22555 -1.80438,0.49808 -2.70657,0.81761c-0.90219,0.31953 -1.78559,0.59206 -2.65019,0.81761c-0.30073,0.07518 -0.60146,0.12217 -0.90219,0.14097c-0.30073,0.0188 -0.58267,0.06578 -0.8458,0.14097c-0.4511,0.11277 -0.93978,0.29133 -1.46606,0.53568c-0.52628,0.24434 -1.04316,0.4323 -1.55064,0.56387c-0.50748,0.13157 -0.99617,0.17856 -1.46606,0.14097c-0.46989,-0.03759 -0.874,-0.26314 -1.21232,-0.67664c0.03759,-0.15037 0.03759,-0.28193 0,-0.39471c-0.03759,-0.11277 -0.0188,-0.20675 0.05639,-0.28193c0.18796,-0.18796 0.38531,-0.38531 0.59206,-0.59206c0.20675,-0.20675 0.40411,-0.34772 0.59206,-0.4229c0.07518,-0.07518 0.10338,-0.15037 0.08458,-0.22555c-0.0188,-0.07518 -0.0094,-0.13157 0.02819,-0.16916c0.26314,-0.07518 0.4511,-0.11277 0.56387,-0.11277c0.11277,0 0.20675,0.0094 0.28193,0.02819c0.07518,0.0188 0.15976,0.0094 0.25374,-0.02819c0.09398,-0.03759 0.25374,-0.11277 0.47929,-0.22555c-0.07518,-0.07518 -0.10338,-0.20675 -0.08458,-0.39471c0.0188,-0.18796 -0.0094,-0.35712 -0.08458,-0.50748l1.52245,-5.35676c0.63905,-2.21789 1.40028,-4.3042 2.28367,-6.25895c0.8834,-1.95475 1.7386,-4.00347 2.56561,-6.14618l1.86077,-4.84928l-0.78942,0.16916c-0.4511,0.18796 -0.89279,0.36652 -1.32509,0.53568c-0.4323,0.16916 -0.81761,0.36652 -1.15593,0.59206c-0.15037,0.07518 -0.29133,0.17856 -0.4229,0.31013c-0.13157,0.13157 -0.27254,0.23495 -0.4229,0.31013c-0.07518,-0.07518 -0.15976,-0.08458 -0.25374,-0.02819c-0.09398,0.05639 -0.17856,0.08458 -0.25374,0.08458c-0.18796,-0.07518 -0.34772,-0.25374 -0.47929,-0.53568c-0.13157,-0.28193 -0.23495,-0.57327 -0.31013,-0.874c0,-0.15037 0.0094,-0.32892 0.02819,-0.53568c0.0188,-0.20675 0.06578,-0.38531 0.14097,-0.53568c0,-0.07518 0.10338,-0.14097 0.31013,-0.19735c0.20675,-0.05639 0.38531,-0.10338 0.53568,-0.14097l2.65019,-1.01497c0.4135,-0.15037 0.8552,-0.28193 1.32509,-0.39471c0.46989,-0.11277 0.96798,-0.22555 1.49425,-0.33832c0.22555,-0.56387 0.4511,-1.12774 0.67664,-1.69161c0.22555,-0.56387 0.46989,-1.12774 0.73303,-1.69161c0.30073,-0.75183 0.59206,-1.48486 0.874,-2.19909c0.28193,-0.71423 0.57327,-1.46606 0.874,-2.25548c0.26314,-0.52628 0.47929,-1.03376 0.64845,-1.52245c0.16916,-0.48869 0.38531,-0.99617 0.64845,-1.52245c0.33832,-0.67664 0.66725,-1.39088 0.98677,-2.1427c0.31953,-0.75183 0.68604,-1.46606 1.09955,-2.1427c0.11277,-0.22555 0.23495,-0.4511 0.36652,-0.67664c0.13157,-0.22555 0.27254,-0.4135 0.4229,-0.56387c0.07518,-0.07518 0.15037,-0.13157 0.22555,-0.16916c0.07518,-0.03759 0.16916,-0.11277 0.28193,-0.22555c0.18796,-0.18796 0.32892,-0.35712 0.4229,-0.50748c0.09398,-0.15037 0.23495,-0.26314 0.4229,-0.33832c0.60146,0.07518 0.99617,0.22555 1.18413,0.4511c0.18796,0.22555 0.35712,0.60146 0.50748,1.12774c-0.33832,0.8646 -0.71423,1.7104 -1.12774,2.53741c-0.4135,0.82701 -0.82701,1.65402 -1.24051,2.48103c-0.30073,0.60146 -0.58267,1.24051 -0.8458,1.91716c-0.26314,0.67664 -0.54507,1.35329 -0.8458,2.02993c-0.07518,0.18796 -0.17856,0.38531 -0.31013,0.59206c-0.13157,0.20675 -0.15976,0.4229 -0.08458,0.64845c-0.33832,0.75183 -0.66725,1.54124 -0.98677,2.36825c-0.31953,0.82701 -0.62965,1.65402 -0.93038,2.48103l2.25548,-0.4511c0.15037,-0.03759 0.31953,-0.07518 0.50748,-0.11277c0.18796,-0.03759 0.35712,-0.05639 0.50748,-0.05639c0.18796,-0.07518 0.37591,-0.13157 0.56387,-0.16916c0.18796,-0.03759 0.37591,-0.0188 0.56387,0.05639l0.39471,0.39471c0.07518,0.07518 0.15037,0.19735 0.22555,0.36652c0.07518,0.16916 0.09398,0.32892 0.05639,0.47929c-0.03759,0.15037 -0.13157,0.26314 -0.28193,0.33832c-0.15037,0.07518 -0.31953,0.11277 -0.50748,0.11277c-0.4135,0.18796 -0.89279,0.37591 -1.43787,0.56387c-0.54507,0.18796 -0.98677,0.31953 -1.32509,0.39471c-0.4135,0.15037 -0.82701,0.28193 -1.24051,0.39471c-0.4135,0.11277 -0.80821,0.20675 -1.18413,0.28193l-0.50748,1.46606c-0.4511,1.20292 -0.8646,2.38705 -1.24051,3.55238c-0.37591,1.16533 -0.82701,2.25548 -1.35329,3.27044c-0.18796,0.33832 -0.33832,0.69544 -0.4511,1.07135l-0.4511,1.12774c-0.15037,0.22555 -0.26314,0.46049 -0.33832,0.70484c-0.07518,0.24434 -0.15037,0.49808 -0.22555,0.76122z" data-paper-data="{&quot;glyphName&quot;:&quot;Ł&quot;,&quot;glyphIndex&quot;:6,&quot;firstGlyphOfWord&quot;:true,&quot;word&quot;:2}" fill="#f277c6"></path><path d="M294.76608,321.92435c1.09015,-0.4135 1.7386,-0.53568 1.94535,-0.36652c0.20675,0.16916 0.10338,0.4229 -0.31013,0.76122c-0.11277,0.11277 -0.25374,0.18796 -0.4229,0.22555c-0.16916,0.03759 -0.31013,0.20675 -0.4229,0.50748c-0.56387,0.48869 -0.95858,0.79882 -1.18413,0.93038c-0.22555,0.13157 -0.37591,0.17856 -0.4511,0.14097c-0.60146,0.26314 -1.14653,0.60146 -1.63522,1.01497c-0.48869,0.4135 -0.98677,0.78942 -1.49425,1.12774c-0.50748,0.33832 -1.05256,0.60146 -1.63522,0.78942c-0.58267,0.18796 -1.26871,0.18796 -2.05812,0c-0.07518,0 -0.15976,-0.02819 -0.25374,-0.08458c-0.09398,-0.05639 -0.19735,-0.10338 -0.31013,-0.14097c-0.33832,-0.15037 -0.57327,-0.32892 -0.70484,-0.53568c-0.13157,-0.20675 -0.25374,-0.4417 -0.36652,-0.70484c-0.07518,-0.30073 -0.12217,-0.66725 -0.14097,-1.09955c-0.0188,-0.4323 0.0094,-0.874 0.08458,-1.32509c-0.07518,-0.03759 -0.12217,-0.02819 -0.14097,0.02819c-0.0188,0.05639 -0.04699,0.08458 -0.08458,0.08458c-0.07518,0.03759 -0.15037,0.08458 -0.22555,0.14097c-0.07518,0.05639 -0.16916,0.12217 -0.28193,0.19735c-0.18796,0.22555 -0.36652,0.4323 -0.53568,0.62026c-0.16916,0.18796 -0.38531,0.33832 -0.64845,0.4511c-0.07518,0.15037 -0.17856,0.26314 -0.31013,0.33832c-0.13157,0.07518 -0.23495,0.15037 -0.31013,0.22555c-0.03759,0 -0.04699,0.02819 -0.02819,0.08458c0.0188,0.05639 0.0094,0.08458 -0.02819,0.08458c-0.07518,0.03759 -0.18796,0.08458 -0.33832,0.14097c-0.15037,0.05639 -0.26314,0.14097 -0.33832,0.25374c-0.8646,0.60146 -1.78559,1.10894 -2.76296,1.52245c-0.26314,0.18796 -0.53568,0.34772 -0.81761,0.47929c-0.28193,0.13157 -0.55447,0.17856 -0.81761,0.14097c-0.18796,0 -0.34772,0 -0.47929,0c-0.13157,0 -0.29133,-0.03759 -0.47929,-0.11277c-0.30073,-0.03759 -0.60146,-0.06578 -0.90219,-0.08458c-0.30073,-0.0188 -0.54507,-0.14097 -0.73303,-0.36652c-0.4135,-0.26314 -0.52628,-0.75183 -0.33832,-1.46606c0,-0.03759 0.0188,-0.05639 0.05639,-0.05639c0.03759,0 0.05639,-0.03759 0.05639,-0.11277c0.03759,-0.4135 0.15976,-0.79882 0.36652,-1.15593c0.20675,-0.35712 0.4229,-0.68604 0.64845,-0.98677c0.30073,-0.52628 0.63905,-1.01497 1.01497,-1.46606c0.37591,-0.4511 0.73303,-0.92099 1.07135,-1.40967c0.30073,-0.26314 0.77062,-0.69544 1.40967,-1.2969c0.63905,-0.60146 1.3157,-1.21232 2.02993,-1.83258c0.71423,-0.62026 1.37208,-1.16533 1.97354,-1.63522c0.60146,-0.46989 1.01497,-0.72363 1.24051,-0.76122c0.4135,-0.18796 0.74243,-0.4229 0.98677,-0.70484c0.24434,-0.28193 0.62965,-0.49808 1.15593,-0.64845c0.03759,0 0.05639,-0.0094 0.05639,-0.02819c0,-0.0188 0.0188,-0.02819 0.05639,-0.02819c0.07518,0 0.15976,0.0094 0.25374,0.02819c0.09398,0.0188 0.17856,-0.0094 0.25374,-0.08458c0.22555,0.11277 0.48869,0.16916 0.78942,0.16916c0.15037,0.18796 0.31953,0.36652 0.50748,0.53568c0.18796,0.16916 0.28193,0.36652 0.28193,0.59206c0.11277,0.11277 0.13157,0.26314 0.05639,0.4511c-0.07518,0.18796 -0.18796,0.31953 -0.33832,0.39471c-0.11277,0.11277 -0.24434,0.15976 -0.39471,0.14097c-0.15037,-0.0188 -0.30073,0.0094 -0.4511,0.08458c-0.37591,0.15037 -0.73303,0.37591 -1.07135,0.67664l-0.67664,0.4511c0,0 -0.03759,0.03759 -0.11277,0.11277c-0.11277,0 -0.23495,0.02819 -0.36652,0.08458c-0.13157,0.05639 -0.23495,0.19735 -0.31013,0.4229c-0.30073,0.07518 -0.60146,0.21615 -0.90219,0.4229c-0.30073,0.20675 -0.60146,0.40411 -0.90219,0.59206c-0.18796,0.18796 -0.35712,0.34772 -0.50748,0.47929c-0.15037,0.13157 -0.31953,0.27254 -0.50748,0.4229c-0.30073,0.26314 -0.62026,0.54507 -0.95858,0.8458c-0.33832,0.30073 -0.65785,0.60146 -0.95858,0.90219c-0.18796,0.15037 -0.36652,0.32892 -0.53568,0.53568c-0.16916,0.20675 -0.38531,0.36652 -0.64845,0.47929c0,0.15037 -0.07518,0.28193 -0.22555,0.39471v0.05639c0,0.03759 0,0.05639 0,0.05639c-0.22555,0.11277 -0.40411,0.27254 -0.53568,0.47929c-0.13157,0.20675 -0.27254,0.40411 -0.4229,0.59206c-0.07518,0.33832 -0.22555,0.63905 -0.4511,0.90219c-0.22555,0.26314 -0.35712,0.54507 -0.39471,0.8458c0.37591,-0.11277 0.67664,-0.28193 0.90219,-0.50748c1.2781,-0.75183 2.49982,-1.55064 3.66515,-2.39645c1.16533,-0.8458 2.36825,-1.7386 3.60877,-2.67838c0.33832,-0.30073 0.66725,-0.54507 0.98677,-0.73303c0.31953,-0.18796 0.62965,-0.48869 0.93038,-0.90219h0.16916v-0.05639c0.03759,-0.11277 0.09398,-0.20675 0.16916,-0.28193c0.07518,-0.07518 0.13157,-0.18796 0.16916,-0.33832c0.03759,-0.07518 0.05639,-0.16916 0.05639,-0.28193c0,-0.11277 0.03759,-0.20675 0.11277,-0.28193c0.11277,-0.03759 0.24434,-0.05639 0.39471,-0.05639c0.15037,0 0.26314,0 0.33832,0h0.73303c0.15037,0.07518 0.35712,0.16916 0.62026,0.28193c0.26314,0.11277 0.39471,0.37591 0.39471,0.78942c-0.11277,0.33832 -0.27254,0.65785 -0.47929,0.95858c-0.20675,0.30073 -0.4229,0.62026 -0.64845,0.95858c-0.07518,0.33832 -0.20675,0.63905 -0.39471,0.90219v0.28193c-0.15037,0.07518 -0.26314,0.24434 -0.33832,0.50748c-0.03759,0.18796 -0.06578,0.33832 -0.08458,0.4511c-0.0188,0.11277 -0.08458,0.28193 -0.19735,0.50748l-0.33832,1.24051c0,0.48869 0.09398,0.77062 0.28193,0.8458c0.18796,0.07518 0.4229,0.05639 0.70484,-0.05639c0.28193,-0.11277 0.59206,-0.27254 0.93038,-0.47929c0.33832,-0.20675 0.63905,-0.36652 0.90219,-0.47929c0.63905,-0.22555 1.2969,-0.56387 1.97354,-1.01497c0.67664,-0.4511 1.2781,-0.82701 1.80438,-1.12774z" data-paper-data="{&quot;glyphName&quot;:&quot;a&quot;,&quot;glyphIndex&quot;:7,&quot;word&quot;:2}"></path><path d="M298.9951,327.39389c0.78942,0.07518 1.56944,-0.05639 2.34006,-0.39471c0.77062,-0.33832 1.51305,-0.65785 2.22728,-0.95858c0.48869,-0.18796 0.95858,-0.4511 1.40967,-0.78942c0.07518,-0.03759 0.14097,-0.07518 0.19735,-0.11277c0.05639,-0.03759 0.12217,-0.11277 0.19735,-0.22555c0.37591,-0.30073 0.78942,-0.62026 1.24051,-0.95858c0.4511,-0.33832 0.82701,-0.69544 1.12774,-1.07135l0.50748,-0.39471c0.11277,-0.11277 0.16916,-0.16916 0.16916,-0.16916v-0.05639v-0.05639c0.03759,0 0.09398,-0.03759 0.16916,-0.11277l2.02993,-2.36825c0.03759,-0.22555 0.10338,-0.48869 0.19735,-0.78942c0.09398,-0.30073 0.06578,-0.54507 -0.08458,-0.73303c-0.26314,-0.07518 -0.62026,-0.09398 -1.07135,-0.05639c-0.4511,0.03759 -0.80821,0.07518 -1.07135,0.11277c-0.78942,0.26314 -1.59763,0.65785 -2.42464,1.18413c-0.82701,0.52628 -1.52245,0.95858 -2.08632,1.2969c-0.48869,0.26314 -1.10894,0.71423 -1.86077,1.35329c-0.75183,0.63905 -1.51305,1.32509 -2.28367,2.05812c-0.77062,0.73303 -1.48486,1.45666 -2.1427,2.1709c-0.65785,0.71423 -1.13714,1.25931 -1.43787,1.63522c-0.18796,0 -0.30073,0.07518 -0.33832,0.22555c-0.15037,0 -0.27254,0.02819 -0.36652,0.08458c-0.09398,0.05639 -0.25374,0.10338 -0.47929,0.14097c-0.11277,0 -0.16916,0 -0.16916,0c-0.11277,0.07518 -0.24434,0.15037 -0.39471,0.22555c-0.15037,0.07518 -0.28193,0.11277 -0.39471,0.11277c-0.4511,-0.03759 -0.72363,-0.20675 -0.81761,-0.50748c-0.09398,-0.30073 -0.10338,-0.64845 -0.02819,-1.04316c0.07518,-0.39471 0.19735,-0.78002 0.36652,-1.15593c0.16916,-0.37591 0.27254,-0.65785 0.31013,-0.8458c0,-0.03759 0.08458,-0.23495 0.25374,-0.59206c0.16916,-0.35712 0.35712,-0.75183 0.56387,-1.18413c0.20675,-0.4323 0.39471,-0.83641 0.56387,-1.21232c0.16916,-0.37591 0.25374,-0.60146 0.25374,-0.67664c0.30073,-0.4135 0.4511,-0.90219 0.4511,-1.46606c0.52628,-1.46606 1.18413,-3.17647 1.97354,-5.13121c0.78942,-1.95475 1.61643,-3.94709 2.48103,-5.97702c0.8646,-2.02993 1.7104,-3.99408 2.53741,-5.89244c0.82701,-1.89836 1.56004,-3.52418 2.19909,-4.87747l1.01497,-0.62026c0.52628,-0.07518 0.93978,0.04699 1.24051,0.36652c0.30073,0.31953 0.4323,0.74243 0.39471,1.26871c0,0.07518 -0.0188,0.13157 -0.05639,0.16916c-0.03759,0.03759 -0.07518,0.09398 -0.11277,0.16916c0,0.03759 -0.0094,0.07518 -0.02819,0.11277c-0.0188,0.03759 -0.02819,0.09398 -0.02819,0.16916v0.16916c0,0.11277 -0.0188,0.22555 -0.05639,0.33832c-0.03759,0.11277 -0.11277,0.20675 -0.22555,0.28193c-0.07518,0.4135 -0.16916,0.65785 -0.28193,0.73303c0,0.22555 -0.02819,0.40411 -0.08458,0.53568c-0.05639,0.13157 -0.12217,0.25374 -0.19735,0.36652c0.03759,0.03759 0.03759,0.09398 0,0.16916c-0.03759,0.07518 -0.0188,0.13157 0.05639,0.16916c-0.18796,0.18796 -0.31953,0.4229 -0.39471,0.70484c-0.07518,0.28193 -0.15037,0.57327 -0.22555,0.874c-0.07518,0.07518 -0.12217,0.15976 -0.14097,0.25374c-0.0188,0.09398 -0.04699,0.17856 -0.08458,0.25374c-0.03759,0.15037 -0.04699,0.26314 -0.02819,0.33832c0.0188,0.07518 0.0094,0.15037 -0.02819,0.22555c-0.07518,0.18796 -0.15037,0.37591 -0.22555,0.56387c-0.07518,0.18796 -0.16916,0.37591 -0.28193,0.56387c-0.07518,0.18796 -0.15976,0.36652 -0.25374,0.53568c-0.09398,0.16916 -0.15976,0.32892 -0.19735,0.47929l-0.11277,0.56387c-0.03759,0.07518 -0.09398,0.13157 -0.16916,0.16916c-0.07518,0.03759 -0.13157,0.11277 -0.16916,0.22555c0,0.07518 -0.03759,0.22555 -0.11277,0.4511c-0.30073,0.67664 -0.65785,1.50365 -1.07135,2.48103c-0.4135,0.97737 -0.82701,2.00174 -1.24051,3.07309c-0.4135,1.07135 -0.80821,2.11451 -1.18413,3.12948c-0.37591,1.01497 -0.67664,1.87957 -0.90219,2.5938c0.60146,-0.37591 1.26871,-0.77062 2.00174,-1.18413c0.73303,-0.4135 1.49425,-0.78942 2.28367,-1.12774c0.78942,-0.33832 1.59763,-0.62965 2.42464,-0.874c0.82701,-0.24434 1.63522,-0.40411 2.42464,-0.47929c0.03759,-0.15037 0.09398,-0.22555 0.16916,-0.22555c0.07518,0.18796 0.26314,0.26314 0.56387,0.22555c0.30073,-0.03759 0.56387,-0.03759 0.78942,0c0.93978,0.11277 1.67281,0.65785 2.19909,1.63522c0.11277,0.26314 0.17856,0.53568 0.19735,0.81761c0.0188,0.28193 0.02819,0.57327 0.02819,0.874c-0.11277,0.11277 -0.16916,0.21615 -0.16916,0.31013c0,0.09398 -0.03759,0.21615 -0.11277,0.36652c-0.4135,1.09015 -1.07135,2.02993 -1.97354,2.81935c-0.90219,0.78942 -1.78559,1.57883 -2.65019,2.36825h-0.05639c-0.11277,0 -0.16916,0 -0.16916,0l-1.07135,0.78942c-0.07518,0 -0.11277,-0.0188 -0.11277,-0.05639c-0.18796,0.18796 -0.36652,0.33832 -0.53568,0.4511c-0.16916,0.11277 -0.36652,0.24434 -0.59206,0.39471c-0.07518,0.07518 -0.15037,0.15037 -0.22555,0.22555c-0.07518,0.07518 -0.15037,0.07518 -0.22555,0c-0.4135,0.30073 -0.8552,0.55447 -1.32509,0.76122c-0.46989,0.20675 -0.96798,0.40411 -1.49425,0.59206h-0.11277c-0.03759,0.07518 -0.11277,0.12217 -0.22555,0.14097c-0.11277,0.0188 -0.22555,0.04699 -0.33832,0.08458c-0.4135,0.30073 -0.80821,0.39471 -1.18413,0.28193c-0.07518,0.07518 -0.15037,0.10338 -0.22555,0.08458c-0.07518,-0.0188 -0.15037,-0.0094 -0.22555,0.02819v-0.05639c-0.07518,0 -0.15976,0 -0.25374,0c-0.09398,0 -0.15976,0.0188 -0.19735,0.05639v-0.05639c-0.15037,0.07518 -0.31013,0.06578 -0.47929,-0.02819c-0.16916,-0.09398 -0.32892,-0.08458 -0.47929,0.02819c-0.22555,-0.03759 -0.40411,-0.06578 -0.53568,-0.08458c-0.13157,-0.0188 -0.23495,-0.12217 -0.31013,-0.31013c-0.03759,-0.18796 0.02819,-0.39471 0.19735,-0.62026c0.16916,-0.22555 0.29133,-0.37591 0.36652,-0.4511c0.15037,0 0.25374,-0.04699 0.31013,-0.14097c0.05639,-0.09398 0.12217,-0.12217 0.19735,-0.08458z" data-paper-data="{&quot;glyphName&quot;:&quot;b&quot;,&quot;glyphIndex&quot;:8,&quot;word&quot;:2}" fill="#f277c6"></path><path d="M327.13219,319.61249c0.03759,0.26314 0.0188,0.55447 -0.05639,0.874c-0.07518,0.31953 -0.18796,0.57327 -0.33832,0.76122c-0.07518,0.18796 -0.16916,0.4323 -0.28193,0.73303c-0.11277,0.30073 -0.24434,0.56387 -0.39471,0.78942c-0.30073,0.26314 -0.57327,0.64845 -0.81761,1.15593c-0.24434,0.50748 -0.51688,0.8552 -0.81761,1.04316c0,0 -0.18796,0.19735 -0.56387,0.59206c-0.37591,0.39471 -0.82701,0.80821 -1.35329,1.24051c-0.52628,0.4323 -1.08075,0.81761 -1.66342,1.15593c-0.58267,0.33832 -1.08075,0.46989 -1.49425,0.39471c-0.60146,0.22555 -1.18413,0.31013 -1.748,0.25374c-0.56387,-0.05639 -1.07135,-0.20675 -1.52245,-0.4511c-0.4511,-0.24434 -0.82701,-0.58267 -1.12774,-1.01497c-0.30073,-0.4323 -0.48869,-0.93038 -0.56387,-1.49425c-0.03759,-0.07518 -0.05639,-0.21615 -0.05639,-0.4229c0,-0.20675 0.05639,-0.34772 0.16916,-0.4229c-0.11277,-0.26314 -0.10338,-0.54507 0.02819,-0.8458c0.13157,-0.30073 0.19735,-0.56387 0.19735,-0.78942l1.01497,-2.87573c0.11277,-0.03759 0.17856,-0.10338 0.19735,-0.19735c0.0188,-0.09398 0.06578,-0.14097 0.14097,-0.14097c0.22555,-0.52628 0.53568,-1.05256 0.93038,-1.57883c0.39471,-0.52628 0.79882,-1.01497 1.21232,-1.46606c0.22555,-0.30073 0.47929,-0.62026 0.76122,-0.95858c0.28193,-0.33832 0.58267,-0.63905 0.90219,-0.90219c0.31953,-0.26314 0.64845,-0.4323 0.98677,-0.50748c0.33832,-0.07518 0.65785,0.0188 0.95858,0.28193c0.37591,0.07518 0.69544,0.18796 0.95858,0.33832c0.03759,0.07518 0.08458,0.07518 0.14097,0c0.05639,-0.07518 0.12217,-0.09398 0.19735,-0.05639c0.07518,-0.03759 0.21615,-0.03759 0.4229,0c0.20675,0.03759 0.4229,0.09398 0.64845,0.16916c0.22555,0.07518 0.4323,0.15037 0.62026,0.22555c0.18796,0.07518 0.31953,0.15037 0.39471,0.22555l0.56387,0.78942c0.4511,-0.11277 1.15593,-0.24434 2.11451,-0.39471c0.95858,-0.15037 1.96415,-0.27254 3.0167,-0.36652c1.05256,-0.09398 2.02993,-0.13157 2.93212,-0.11277c0.90219,0.0188 1.56004,0.15976 1.97354,0.4229c0.03759,0.03759 0.08458,0.05639 0.14097,0.05639c0.05639,0 0.10338,0.0188 0.14097,0.05639c0.03759,0.03759 0.07518,0.05639 0.11277,0.05639c0.22555,-0.03759 0.34772,-0.0188 0.36652,0.05639c0.0188,0.07518 0.10338,0.11277 0.25374,0.11277c0.18796,0.15037 0.22555,0.31013 0.11277,0.47929c-0.11277,0.16916 -0.24434,0.29133 -0.39471,0.36652c-0.4135,0.03759 -0.66725,0.09398 -0.76122,0.16916c-0.09398,0.07518 -0.18796,0.14097 -0.28193,0.19735c-0.09398,0.05639 -0.25374,0.09398 -0.47929,0.11277c-0.22555,0.0188 -0.65785,0.02819 -1.2969,0.02819c-0.52628,0 -1.08075,0.03759 -1.66342,0.11277c-0.58267,0.07518 -1.17473,0.18796 -1.77619,0.33832c-0.60146,0.15037 -1.17473,0.29133 -1.7198,0.4229c-0.54507,0.13157 -1.00557,0.25374 -1.38148,0.36652c-0.03759,0.15037 -0.05639,0.27254 -0.05639,0.36652c0,0.09398 0,0.17856 0,0.25374zM323.07233,316.90591c-0.18796,-0.07518 -0.37591,-0.11277 -0.56387,-0.11277c-0.18796,0 -0.35712,-0.07518 -0.50748,-0.22555l-0.16916,0.16916c-0.22555,0.18796 -0.40411,0.4135 -0.53568,0.67664c-0.13157,0.26314 -0.29133,0.54507 -0.47929,0.8458c-0.18796,0.22555 -0.4323,0.56387 -0.73303,1.01497c-0.30073,0.4511 -0.60146,0.93038 -0.90219,1.43787c-0.30073,0.50748 -0.57327,0.99617 -0.81761,1.46606c-0.24434,0.46989 -0.38531,0.83641 -0.4229,1.09955c-0.11277,0.48869 -0.26314,1.01497 -0.4511,1.57883c-0.18796,0.56387 -0.15037,1.10894 0.11277,1.63522c0.82701,-0.30073 1.55064,-0.67664 2.1709,-1.12774c0.62026,-0.4511 1.19352,-0.95858 1.7198,-1.52245l0.33832,-0.39471c0.15037,-0.26314 0.4323,-0.75183 0.8458,-1.46606c0.4135,-0.71423 0.76122,-1.44727 1.04316,-2.19909c0.28193,-0.75183 0.4135,-1.41907 0.39471,-2.00174c-0.0188,-0.58267 -0.36652,-0.874 -1.04316,-0.874z" data-paper-data="{&quot;glyphName&quot;:&quot;o&quot;,&quot;glyphIndex&quot;:9,&quot;word&quot;:2}" fill="#f277c6"></path><path d="M347.76982,320.57106c0.07518,0 0.16916,-0.0094 0.28193,-0.02819c0.11277,-0.0188 0.24434,-0.06578 0.39471,-0.14097h0.33832l0.16916,-0.05639h0.56387c0.60146,0.37591 0.81761,0.70484 0.64845,0.98677c-0.16916,0.28193 -0.46049,0.46049 -0.874,0.53568c-0.37591,0.18796 -0.874,0.39471 -1.49425,0.62026c-0.62026,0.22555 -1.24051,0.4417 -1.86077,0.64845c-0.62026,0.20675 -1.17473,0.38531 -1.66342,0.53568c-0.48869,0.15037 -0.77062,0.22555 -0.8458,0.22555c-0.03759,0 -0.06578,0.0094 -0.08458,0.02819c-0.0188,0.0188 -0.06578,0.02819 -0.14097,0.02819c-0.07518,0.03759 -0.13157,0.05639 -0.16916,0.05639c-0.52628,1.05256 -0.93038,1.77619 -1.21232,2.1709c-0.28193,0.39471 -0.53568,0.70484 -0.76122,0.93038l-0.33832,0.28193c-0.8646,0.71423 -1.61643,1.3157 -2.25548,1.80438c-0.63905,0.48869 -1.19352,0.90219 -1.66342,1.24051c-0.46989,0.33832 -0.874,0.61086 -1.21232,0.81761c-0.33832,0.20675 -0.63905,0.36652 -0.90219,0.47929v-0.05639c-0.75183,0.4135 -1.41907,0.69544 -2.00174,0.8458c-0.58267,0.15037 -1.02436,0.22555 -1.32509,0.22555c-0.75183,0 -1.26871,-0.15976 -1.55064,-0.47929c-0.28193,-0.31953 -0.4229,-0.72363 -0.4229,-1.21232c0,-0.71423 0.32892,-1.42847 0.98677,-2.1427c0.65785,-0.71423 1.44727,-1.39088 2.36825,-2.02993c0.92099,-0.63905 1.90776,-1.21232 2.96032,-1.7198c1.05256,-0.50748 1.97354,-0.93978 2.76296,-1.2969c0.78942,-0.35712 1.36268,-0.62026 1.7198,-0.78942c0.35712,-0.16916 0.31013,-0.19735 -0.14097,-0.08458l-0.22555,-0.05639c-0.48869,0 -1.14653,0.02819 -1.97354,0.08458c-0.82701,0.05639 -1.61643,0.17856 -2.36825,0.36652c-0.37591,0.07518 -0.73303,0.14097 -1.07135,0.19735c-0.33832,0.05639 -0.77062,0.04699 -1.2969,-0.02819h0.05639c-0.03759,0 -0.06578,-0.0094 -0.08458,-0.02819c-0.0188,-0.0188 -0.04699,-0.02819 -0.08458,-0.02819c-0.07518,0 -0.17856,-0.02819 -0.31013,-0.08458c-0.13157,-0.05639 -0.21615,-0.10338 -0.25374,-0.14097h0.05639c-0.30073,-0.26314 -0.50748,-0.52628 -0.62026,-0.78942c-0.11277,-0.26314 -0.16916,-0.50748 -0.16916,-0.73303c0,-0.22555 0.04699,-0.4229 0.14097,-0.59206c0.09398,-0.16916 0.17856,-0.31013 0.25374,-0.4229c0.18796,-0.30073 0.4511,-0.60146 0.78942,-0.90219c0.33832,-0.30073 0.75183,-0.71423 1.24051,-1.24051l0.16916,-0.16916c0.4511,-0.30073 0.92099,-0.63905 1.40967,-1.01497c0.48869,-0.37591 0.99617,-0.72363 1.52245,-1.04316c0.52628,-0.31953 1.06195,-0.60146 1.60703,-0.8458c0.54507,-0.24434 1.08075,-0.38531 1.60703,-0.4229l0.39471,-0.11277c0.22555,0 0.46989,0.04699 0.73303,0.14097c0.26314,0.09398 0.48869,0.17856 0.67664,0.25374c0.18796,0.33832 0.25374,0.60146 0.19735,0.78942c-0.05639,0.18796 -0.15976,0.31953 -0.31013,0.39471l-0.62026,0.33832l-0.11277,0.05639c-0.11277,0.11277 -0.28193,0.20675 -0.50748,0.28193c0.07518,-0.07518 0.0094,-0.04699 -0.19735,0.08458c-0.20675,0.13157 -0.40411,0.23495 -0.59206,0.31013c-0.30073,0.30073 -0.71423,0.52628 -1.24051,0.67664c-0.52628,0.15037 -0.95858,0.33832 -1.2969,0.56387l-0.56387,0.33832l-0.8458,0.67664l-0.50748,0.39471c-0.48869,0.30073 -0.92099,0.67664 -1.2969,1.12774c0.60146,-0.07518 1.14653,-0.16916 1.63522,-0.28193c0.52628,-0.07518 1.11834,-0.14097 1.77619,-0.19735c0.65785,-0.05639 1.3063,-0.06578 1.94535,-0.02819c0.33832,0.03759 0.71423,0.09398 1.12774,0.16916c0.4135,0.07518 0.77062,0.20675 1.07135,0.39471h-0.05639c0.4135,0.22555 0.62965,0.35712 0.64845,0.39471c0.0188,0.03759 0.04699,0.05639 0.08458,0.05639l0.05639,0.11277c0.03759,-0.03759 0.07518,-0.05639 0.11277,-0.05639c0.03759,0 0.08458,-0.0094 0.14097,-0.02819c0.05639,-0.0188 0.10338,-0.02819 0.14097,-0.02819l0.28193,-0.11277l4.00347,-1.18413c0.11277,0 0.26314,-0.0188 0.4511,-0.05639zM334.34972,328.01414c-0.07518,0.07518 -0.30073,0.28193 -0.67664,0.62026c-0.37591,0.33832 -0.62026,0.58267 -0.73303,0.73303c-0.30073,0.18796 -0.55447,0.39471 -0.76122,0.62026c-0.20675,0.22555 -0.34772,0.39471 -0.4229,0.50748c-0.11277,0.18796 -0.05639,0.27254 0.16916,0.25374c0.22555,-0.0188 0.50748,-0.09398 0.8458,-0.22555c0.33832,-0.13157 0.68604,-0.28193 1.04316,-0.4511c0.35712,-0.16916 0.59206,-0.29133 0.70484,-0.36652h-0.05639l1.40967,-0.78942c1.09015,-0.75183 1.89836,-1.38148 2.42464,-1.88896c0.52628,-0.50748 0.99617,-1.06195 1.40967,-1.66342l-0.67664,0.22555c-1.12774,0.52628 -1.95475,0.91159 -2.48103,1.15593c-0.52628,0.24434 -0.95858,0.46049 -1.2969,0.64845l-0.73303,0.56387z" data-paper-data="{&quot;glyphName&quot;:&quot;s&quot;,&quot;glyphIndex&quot;:10,&quot;word&quot;:2}" fill="#f277c6"></path><path d="M362.9943,324.7437c0.71423,-0.26314 1.35329,-0.37591 1.91716,-0.33832c0.56387,0.03759 0.90219,0.17856 1.01497,0.4229c0.11277,0.24434 -0.08458,0.54507 -0.59206,0.90219c-0.50748,0.35712 -1.45666,0.72363 -2.84754,1.09955c-0.07518,0.03759 -0.34772,0.11277 -0.81761,0.22555c-0.46989,0.11277 -0.95858,0.21615 -1.46606,0.31013c-0.50748,0.09398 -0.93978,0.17856 -1.2969,0.25374c-0.35712,0.07518 -0.46049,0.09398 -0.31013,0.05639c-0.37591,0.07518 -0.8552,0.21615 -1.43787,0.4229c-0.58267,0.20675 -1.20292,0.4135 -1.86077,0.62026c-0.65785,0.20675 -1.2781,0.38531 -1.86077,0.53568c-0.58267,0.15037 -1.06195,0.18796 -1.43787,0.11277c-0.11277,0 -0.24434,0.0188 -0.39471,0.05639c-0.15037,0.03759 -0.30073,0.0188 -0.4511,-0.05639c-0.11277,0.07518 -0.29133,0.13157 -0.53568,0.16916c-0.24434,0.03759 -0.46049,0.09398 -0.64845,0.16916c-0.18796,-0.07518 -0.40411,-0.07518 -0.64845,0c-0.24434,0.07518 -0.47929,0.07518 -0.70484,0c-0.11277,0.03759 -0.25374,0.0094 -0.4229,-0.08458c-0.16916,-0.09398 -0.34772,-0.19735 -0.53568,-0.31013c-0.22555,-0.03759 -0.32892,-0.09398 -0.31013,-0.16916c0.0188,-0.07518 -0.02819,-0.16916 -0.14097,-0.28193c-0.22555,-0.71423 -0.19735,-1.40028 0.08458,-2.05812c0.28193,-0.65785 0.69544,-1.26871 1.24051,-1.83258c0.54507,-0.56387 1.12774,-1.07135 1.748,-1.52245c0.62026,-0.4511 1.13714,-0.8646 1.55064,-1.24051c0.03759,-0.07518 0.15976,-0.19735 0.36652,-0.36652c0.20675,-0.16916 0.4229,-0.35712 0.64845,-0.56387c0.22555,-0.20675 0.4417,-0.38531 0.64845,-0.53568c0.20675,-0.15037 0.32892,-0.22555 0.36652,-0.22555c0.07518,-0.11277 0.15976,-0.19735 0.25374,-0.25374c0.09398,-0.05639 0.17856,-0.12217 0.25374,-0.19735c0.11277,-0.22555 0.21615,-0.37591 0.31013,-0.4511c0.09398,-0.07518 0.18796,-0.12217 0.28193,-0.14097c0.09398,-0.0188 0.19735,-0.06578 0.31013,-0.14097c0.11277,-0.07518 0.24434,-0.22555 0.39471,-0.4511c0.22555,-0.22555 0.4511,-0.4417 0.67664,-0.64845c0.22555,-0.20675 0.4135,-0.38531 0.56387,-0.53568c0.15037,-0.15037 0.23495,-0.27254 0.25374,-0.36652c0.0188,-0.09398 -0.10338,-0.14097 -0.36652,-0.14097c-0.4135,0 -0.8834,0.07518 -1.40967,0.22555c-0.52628,0.15037 -1.05256,0.33832 -1.57883,0.56387c-0.52628,0.22555 -1.01497,0.46049 -1.46606,0.70484c-0.4511,0.24434 -0.80821,0.47929 -1.07135,0.70484l-0.16916,0.11277c-0.11277,0.18796 -0.28193,0.33832 -0.50748,0.4511c-0.22555,0.11277 -0.46989,0.16916 -0.73303,0.16916c-0.26314,0 -0.51688,-0.05639 -0.76122,-0.16916c-0.24434,-0.11277 -0.40411,-0.33832 -0.47929,-0.67664c-0.15037,-0.63905 -0.09398,-1.15593 0.16916,-1.55064c0.26314,-0.39471 0.62965,-0.72363 1.09955,-0.98677c0.46989,-0.26314 0.97737,-0.4511 1.52245,-0.56387c0.54507,-0.11277 1.02436,-0.20675 1.43787,-0.28193c0.37591,-0.03759 0.98677,-0.15037 1.83258,-0.33832c0.8458,-0.18796 1.7198,-0.36652 2.62199,-0.53568c0.90219,-0.16916 1.7386,-0.28193 2.50922,-0.33832c0.77062,-0.05639 1.26871,0.04699 1.49425,0.31013c0.33832,0.4511 0.4229,0.94918 0.25374,1.49425c-0.16916,0.54507 -0.49808,0.94918 -0.98677,1.21232c-0.11277,0.4135 -0.39471,0.75183 -0.8458,1.01497c0,0.15037 -0.15037,0.22555 -0.4511,0.22555c-0.07518,0.30073 -0.22555,0.54507 -0.4511,0.73303c-0.22555,0.18796 -0.4511,0.31953 -0.67664,0.39471c-0.63905,0.4511 -1.34389,0.95858 -2.11451,1.52245c-0.77062,0.56387 -1.51305,1.20292 -2.22728,1.91716c-0.82701,0.82701 -1.51305,1.42847 -2.05812,1.80438c-0.54507,0.37591 -0.89279,0.77062 -1.04316,1.18413c-0.22555,0 -0.37591,0.15037 -0.4511,0.4511c1.42847,-0.33832 2.78176,-0.62965 4.05986,-0.874c1.2781,-0.24434 2.38705,-0.4417 3.32683,-0.59206c0.93978,-0.15037 1.67281,-0.24434 2.19909,-0.28193c0.52628,-0.03759 0.78942,-0.03759 0.78942,0c0.03759,0 0.17856,-0.0188 0.4229,-0.05639c0.24434,-0.03759 0.51688,-0.09398 0.81761,-0.16916z" data-paper-data="{&quot;glyphName&quot;:&quot;z&quot;,&quot;glyphIndex&quot;:11,&quot;word&quot;:2}"></path><path d="M372.9184,324.46176c0.78942,-0.30073 1.38148,-0.52628 1.77619,-0.67664c0.39471,-0.15037 0.69544,-0.26314 0.90219,-0.33832c0.20675,-0.07518 0.35712,-0.14097 0.4511,-0.19735c0.09398,-0.05639 0.21615,-0.11277 0.36652,-0.16916c0.15037,-0.05639 0.38531,-0.13157 0.70484,-0.22555c0.31953,-0.09398 0.81761,-0.25374 1.49425,-0.47929c0.30073,-0.18796 0.62965,-0.36652 0.98677,-0.53568c0.35712,-0.16916 0.72363,-0.31013 1.09955,-0.4229c0.03759,-0.03759 0.13157,-0.05639 0.28193,-0.05639c0.15037,0 0.26314,0 0.33832,0c0.4135,-0.15037 0.65785,-0.18796 0.73303,-0.11277c0.15037,0.07518 0.18796,0.13157 0.11277,0.16916c-0.07518,0.03759 -0.11277,0.09398 -0.11277,0.16916c0,0.07518 0.0094,0.13157 0.02819,0.16916c0.0188,0.03759 -0.08458,0.11277 -0.31013,0.22555c-0.03759,0.11277 -0.10338,0.18796 -0.19735,0.22555c-0.09398,0.03759 -0.23495,0.09398 -0.4229,0.16916c-0.26314,0 -0.4323,0.13157 -0.50748,0.39471c-0.15037,0.07518 -0.33832,0.18796 -0.56387,0.33832c-0.22555,0.15037 -0.46049,0.31953 -0.70484,0.50748c-0.24434,0.18796 -0.47929,0.35712 -0.70484,0.50748c-0.22555,0.15037 -0.4135,0.24434 -0.56387,0.28193c-1.57883,0.75183 -3.11068,1.42847 -4.59554,2.02993c-1.48486,0.60146 -3.0167,1.16533 -4.59554,1.69161c-0.22555,0.07518 -0.4323,0.14097 -0.62026,0.19735c-0.18796,0.05639 -0.4323,0.15976 -0.73303,0.31013c-0.11277,0 -0.25374,0.03759 -0.4229,0.11277c-0.16916,0.07518 -0.29133,0.09398 -0.36652,0.05639c-0.07518,0.03759 -0.12217,0.04699 -0.14097,0.02819c-0.0188,-0.0188 -0.06578,-0.02819 -0.14097,-0.02819c-0.48869,0.18796 -0.874,0.24434 -1.15593,0.16916c-0.28193,-0.07518 -0.70484,-0.07518 -1.26871,0c-0.33832,0 -0.63905,-0.05639 -0.90219,-0.16916c-0.26314,-0.11277 -0.48869,-0.24434 -0.67664,-0.39471c-0.52628,-0.4135 -0.8834,-0.90219 -1.07135,-1.46606c-0.18796,-0.56387 -0.0188,-1.39088 0.50748,-2.48103c0.26314,-0.52628 0.57327,-1.02436 0.93038,-1.49425c0.35712,-0.46989 0.78002,-0.91159 1.26871,-1.32509c0.4135,-0.48869 0.75183,-0.83641 1.01497,-1.04316c0.26314,-0.20675 0.63905,-0.53568 1.12774,-0.98677c0.4135,-0.33832 0.8552,-0.72363 1.32509,-1.15593c0.46989,-0.4323 0.93038,-0.874 1.38148,-1.32509c0.30073,-0.18796 0.52628,-0.36652 0.67664,-0.53568c0.15037,-0.16916 0.4135,-0.36652 0.78942,-0.59206c0.18796,-0.07518 0.32892,-0.13157 0.4229,-0.16916c0.09398,-0.03759 0.23495,-0.09398 0.4229,-0.16916c0.18796,-0.07518 0.33832,-0.18796 0.4511,-0.33832c0.11277,-0.15037 0.30073,-0.22555 0.56387,-0.22555c0.30073,-0.03759 0.80821,0.07518 1.52245,0.33832c0.15037,0.15037 0.26314,0.36652 0.33832,0.64845c0.07518,0.28193 0.10338,0.56387 0.08458,0.8458c-0.0188,0.28193 -0.06578,0.54507 -0.14097,0.78942c-0.07518,0.24434 -0.18796,0.40411 -0.33832,0.47929c-0.37591,0.18796 -0.64845,0.31953 -0.81761,0.39471c-0.16916,0.07518 -0.38531,0.24434 -0.64845,0.50748c-0.07518,0 -0.18796,0.02819 -0.33832,0.08458c-0.15037,0.05639 -0.26314,0.14097 -0.33832,0.25374c-0.11277,0 -0.25374,-0.0094 -0.4229,-0.02819c-0.16916,-0.0188 -0.29133,0.0094 -0.36652,0.08458c-0.07518,0.11277 -0.19735,0.18796 -0.36652,0.22555c-0.16916,0.03759 -0.34772,0.15037 -0.53568,0.33832l-0.90219,0.73303l-1.24051,0.95858c-0.30073,0.30073 -0.60146,0.58267 -0.90219,0.8458c-0.30073,0.26314 -0.54507,0.54507 -0.73303,0.8458c-0.30073,0.26314 -0.56387,0.60146 -0.78942,1.01497c-0.22555,0.4135 -0.4135,0.80821 -0.56387,1.18413c-0.22555,0.56387 -0.03759,0.8552 0.56387,0.874c0.60146,0.0188 1.36268,-0.09398 2.28367,-0.33832c0.92099,-0.24434 1.88896,-0.54507 2.90393,-0.90219c1.01497,-0.35712 1.80438,-0.62965 2.36825,-0.81761z" data-paper-data="{&quot;glyphName&quot;:&quot;c&quot;,&quot;glyphIndex&quot;:12,&quot;word&quot;:2}" fill="#f277c6"></path><path d="M394.00712,324.7437c0.71423,-0.26314 1.35329,-0.37591 1.91716,-0.33832c0.56387,0.03759 0.90219,0.17856 1.01497,0.4229c0.11277,0.24434 -0.08458,0.54507 -0.59206,0.90219c-0.50748,0.35712 -1.45666,0.72363 -2.84754,1.09955c-0.07518,0.03759 -0.34772,0.11277 -0.81761,0.22555c-0.46989,0.11277 -0.95858,0.21615 -1.46606,0.31013c-0.50748,0.09398 -0.93978,0.17856 -1.2969,0.25374c-0.35712,0.07518 -0.46049,0.09398 -0.31013,0.05639c-0.37591,0.07518 -0.8552,0.21615 -1.43787,0.4229c-0.58267,0.20675 -1.20292,0.4135 -1.86077,0.62026c-0.65785,0.20675 -1.2781,0.38531 -1.86077,0.53568c-0.58267,0.15037 -1.06195,0.18796 -1.43787,0.11277c-0.11277,0 -0.24434,0.0188 -0.39471,0.05639c-0.15037,0.03759 -0.30073,0.0188 -0.4511,-0.05639c-0.11277,0.07518 -0.29133,0.13157 -0.53568,0.16916c-0.24434,0.03759 -0.46049,0.09398 -0.64845,0.16916c-0.18796,-0.07518 -0.40411,-0.07518 -0.64845,0c-0.24434,0.07518 -0.47929,0.07518 -0.70484,0c-0.11277,0.03759 -0.25374,0.0094 -0.4229,-0.08458c-0.16916,-0.09398 -0.34772,-0.19735 -0.53568,-0.31013c-0.22555,-0.03759 -0.32892,-0.09398 -0.31013,-0.16916c0.0188,-0.07518 -0.02819,-0.16916 -0.14097,-0.28193c-0.22555,-0.71423 -0.19735,-1.40028 0.08458,-2.05812c0.28193,-0.65785 0.69544,-1.26871 1.24051,-1.83258c0.54507,-0.56387 1.12774,-1.07135 1.748,-1.52245c0.62026,-0.4511 1.13714,-0.8646 1.55064,-1.24051c0.03759,-0.07518 0.15976,-0.19735 0.36652,-0.36652c0.20675,-0.16916 0.4229,-0.35712 0.64845,-0.56387c0.22555,-0.20675 0.4417,-0.38531 0.64845,-0.53568c0.20675,-0.15037 0.32892,-0.22555 0.36652,-0.22555c0.07518,-0.11277 0.15976,-0.19735 0.25374,-0.25374c0.09398,-0.05639 0.17856,-0.12217 0.25374,-0.19735c0.11277,-0.22555 0.21615,-0.37591 0.31013,-0.4511c0.09398,-0.07518 0.18796,-0.12217 0.28193,-0.14097c0.09398,-0.0188 0.19735,-0.06578 0.31013,-0.14097c0.11277,-0.07518 0.24434,-0.22555 0.39471,-0.4511c0.22555,-0.22555 0.4511,-0.4417 0.67664,-0.64845c0.22555,-0.20675 0.4135,-0.38531 0.56387,-0.53568c0.15037,-0.15037 0.23495,-0.27254 0.25374,-0.36652c0.0188,-0.09398 -0.10338,-0.14097 -0.36652,-0.14097c-0.4135,0 -0.8834,0.07518 -1.40967,0.22555c-0.52628,0.15037 -1.05256,0.33832 -1.57883,0.56387c-0.52628,0.22555 -1.01497,0.46049 -1.46606,0.70484c-0.4511,0.24434 -0.80821,0.47929 -1.07135,0.70484l-0.16916,0.11277c-0.11277,0.18796 -0.28193,0.33832 -0.50748,0.4511c-0.22555,0.11277 -0.46989,0.16916 -0.73303,0.16916c-0.26314,0 -0.51688,-0.05639 -0.76122,-0.16916c-0.24434,-0.11277 -0.40411,-0.33832 -0.47929,-0.67664c-0.15037,-0.63905 -0.09398,-1.15593 0.16916,-1.55064c0.26314,-0.39471 0.62965,-0.72363 1.09955,-0.98677c0.46989,-0.26314 0.97737,-0.4511 1.52245,-0.56387c0.54507,-0.11277 1.02436,-0.20675 1.43787,-0.28193c0.37591,-0.03759 0.98677,-0.15037 1.83258,-0.33832c0.8458,-0.18796 1.7198,-0.36652 2.62199,-0.53568c0.90219,-0.16916 1.7386,-0.28193 2.50922,-0.33832c0.77062,-0.05639 1.26871,0.04699 1.49425,0.31013c0.33832,0.4511 0.4229,0.94918 0.25374,1.49425c-0.16916,0.54507 -0.49808,0.94918 -0.98677,1.21232c-0.11277,0.4135 -0.39471,0.75183 -0.8458,1.01497c0,0.15037 -0.15037,0.22555 -0.4511,0.22555c-0.07518,0.30073 -0.22555,0.54507 -0.4511,0.73303c-0.22555,0.18796 -0.4511,0.31953 -0.67664,0.39471c-0.63905,0.4511 -1.34389,0.95858 -2.11451,1.52245c-0.77062,0.56387 -1.51305,1.20292 -2.22728,1.91716c-0.82701,0.82701 -1.51305,1.42847 -2.05812,1.80438c-0.54507,0.37591 -0.89279,0.77062 -1.04316,1.18413c-0.22555,0 -0.37591,0.15037 -0.4511,0.4511c1.42847,-0.33832 2.78176,-0.62965 4.05986,-0.874c1.2781,-0.24434 2.38705,-0.4417 3.32683,-0.59206c0.93978,-0.15037 1.67281,-0.24434 2.19909,-0.28193c0.52628,-0.03759 0.78942,-0.03759 0.78942,0c0.03759,0 0.17856,-0.0188 0.4229,-0.05639c0.24434,-0.03759 0.51688,-0.09398 0.81761,-0.16916z" data-paper-data="{&quot;glyphName&quot;:&quot;z&quot;,&quot;glyphIndex&quot;:13,&quot;word&quot;:2}" fill="#f277c6"></path><path d="M411.93818,321.92435c1.09015,-0.4135 1.7386,-0.53568 1.94535,-0.36652c0.20675,0.16916 0.10338,0.4229 -0.31013,0.76122c-0.11277,0.11277 -0.25374,0.18796 -0.4229,0.22555c-0.16916,0.03759 -0.31013,0.20675 -0.4229,0.50748c-0.56387,0.48869 -0.95858,0.79882 -1.18413,0.93038c-0.22555,0.13157 -0.37591,0.17856 -0.4511,0.14097c-0.60146,0.26314 -1.14653,0.60146 -1.63522,1.01497c-0.48869,0.4135 -0.98677,0.78942 -1.49425,1.12774c-0.50748,0.33832 -1.05256,0.60146 -1.63522,0.78942c-0.58267,0.18796 -1.26871,0.18796 -2.05812,0c-0.07518,0 -0.15976,-0.02819 -0.25374,-0.08458c-0.09398,-0.05639 -0.19735,-0.10338 -0.31013,-0.14097c-0.33832,-0.15037 -0.57327,-0.32892 -0.70484,-0.53568c-0.13157,-0.20675 -0.25374,-0.4417 -0.36652,-0.70484c-0.07518,-0.30073 -0.12217,-0.66725 -0.14097,-1.09955c-0.0188,-0.4323 0.0094,-0.874 0.08458,-1.32509c-0.07518,-0.03759 -0.12217,-0.02819 -0.14097,0.02819c-0.0188,0.05639 -0.04699,0.08458 -0.08458,0.08458c-0.07518,0.03759 -0.15037,0.08458 -0.22555,0.14097c-0.07518,0.05639 -0.16916,0.12217 -0.28193,0.19735c-0.18796,0.22555 -0.36652,0.4323 -0.53568,0.62026c-0.16916,0.18796 -0.38531,0.33832 -0.64845,0.4511c-0.07518,0.15037 -0.17856,0.26314 -0.31013,0.33832c-0.13157,0.07518 -0.23495,0.15037 -0.31013,0.22555c-0.03759,0 -0.04699,0.02819 -0.02819,0.08458c0.0188,0.05639 0.0094,0.08458 -0.02819,0.08458c-0.07518,0.03759 -0.18796,0.08458 -0.33832,0.14097c-0.15037,0.05639 -0.26314,0.14097 -0.33832,0.25374c-0.8646,0.60146 -1.78559,1.10894 -2.76296,1.52245c-0.26314,0.18796 -0.53568,0.34772 -0.81761,0.47929c-0.28193,0.13157 -0.55447,0.17856 -0.81761,0.14097c-0.18796,0 -0.34772,0 -0.47929,0c-0.13157,0 -0.29133,-0.03759 -0.47929,-0.11277c-0.30073,-0.03759 -0.60146,-0.06578 -0.90219,-0.08458c-0.30073,-0.0188 -0.54507,-0.14097 -0.73303,-0.36652c-0.4135,-0.26314 -0.52628,-0.75183 -0.33832,-1.46606c0,-0.03759 0.0188,-0.05639 0.05639,-0.05639c0.03759,0 0.05639,-0.03759 0.05639,-0.11277c0.03759,-0.4135 0.15976,-0.79882 0.36652,-1.15593c0.20675,-0.35712 0.4229,-0.68604 0.64845,-0.98677c0.30073,-0.52628 0.63905,-1.01497 1.01497,-1.46606c0.37591,-0.4511 0.73303,-0.92099 1.07135,-1.40967c0.30073,-0.26314 0.77062,-0.69544 1.40967,-1.2969c0.63905,-0.60146 1.3157,-1.21232 2.02993,-1.83258c0.71423,-0.62026 1.37208,-1.16533 1.97354,-1.63522c0.60146,-0.46989 1.01497,-0.72363 1.24051,-0.76122c0.4135,-0.18796 0.74243,-0.4229 0.98677,-0.70484c0.24434,-0.28193 0.62965,-0.49808 1.15593,-0.64845c0.03759,0 0.05639,-0.0094 0.05639,-0.02819c0,-0.0188 0.0188,-0.02819 0.05639,-0.02819c0.07518,0 0.15976,0.0094 0.25374,0.02819c0.09398,0.0188 0.17856,-0.0094 0.25374,-0.08458c0.22555,0.11277 0.48869,0.16916 0.78942,0.16916c0.15037,0.18796 0.31953,0.36652 0.50748,0.53568c0.18796,0.16916 0.28193,0.36652 0.28193,0.59206c0.11277,0.11277 0.13157,0.26314 0.05639,0.4511c-0.07518,0.18796 -0.18796,0.31953 -0.33832,0.39471c-0.11277,0.11277 -0.24434,0.15976 -0.39471,0.14097c-0.15037,-0.0188 -0.30073,0.0094 -0.4511,0.08458c-0.37591,0.15037 -0.73303,0.37591 -1.07135,0.67664l-0.67664,0.4511c0,0 -0.03759,0.03759 -0.11277,0.11277c-0.11277,0 -0.23495,0.02819 -0.36652,0.08458c-0.13157,0.05639 -0.23495,0.19735 -0.31013,0.4229c-0.30073,0.07518 -0.60146,0.21615 -0.90219,0.4229c-0.30073,0.20675 -0.60146,0.40411 -0.90219,0.59206c-0.18796,0.18796 -0.35712,0.34772 -0.50748,0.47929c-0.15037,0.13157 -0.31953,0.27254 -0.50748,0.4229c-0.30073,0.26314 -0.62026,0.54507 -0.95858,0.8458c-0.33832,0.30073 -0.65785,0.60146 -0.95858,0.90219c-0.18796,0.15037 -0.36652,0.32892 -0.53568,0.53568c-0.16916,0.20675 -0.38531,0.36652 -0.64845,0.47929c0,0.15037 -0.07518,0.28193 -0.22555,0.39471v0.05639c0,0.03759 0,0.05639 0,0.05639c-0.22555,0.11277 -0.40411,0.27254 -0.53568,0.47929c-0.13157,0.20675 -0.27254,0.40411 -0.4229,0.59206c-0.07518,0.33832 -0.22555,0.63905 -0.4511,0.90219c-0.22555,0.26314 -0.35712,0.54507 -0.39471,0.8458c0.37591,-0.11277 0.67664,-0.28193 0.90219,-0.50748c1.2781,-0.75183 2.49982,-1.55064 3.66515,-2.39645c1.16533,-0.8458 2.36825,-1.7386 3.60877,-2.67838c0.33832,-0.30073 0.66725,-0.54507 0.98677,-0.73303c0.31953,-0.18796 0.62965,-0.48869 0.93038,-0.90219h0.16916v-0.05639c0.03759,-0.11277 0.09398,-0.20675 0.16916,-0.28193c0.07518,-0.07518 0.13157,-0.18796 0.16916,-0.33832c0.03759,-0.07518 0.05639,-0.16916 0.05639,-0.28193c0,-0.11277 0.03759,-0.20675 0.11277,-0.28193c0.11277,-0.03759 0.24434,-0.05639 0.39471,-0.05639c0.15037,0 0.26314,0 0.33832,0h0.73303c0.15037,0.07518 0.35712,0.16916 0.62026,0.28193c0.26314,0.11277 0.39471,0.37591 0.39471,0.78942c-0.11277,0.33832 -0.27254,0.65785 -0.47929,0.95858c-0.20675,0.30073 -0.4229,0.62026 -0.64845,0.95858c-0.07518,0.33832 -0.20675,0.63905 -0.39471,0.90219v0.28193c-0.15037,0.07518 -0.26314,0.24434 -0.33832,0.50748c-0.03759,0.18796 -0.06578,0.33832 -0.08458,0.4511c-0.0188,0.11277 -0.08458,0.28193 -0.19735,0.50748l-0.33832,1.24051c0,0.48869 0.09398,0.77062 0.28193,0.8458c0.18796,0.07518 0.4229,0.05639 0.70484,-0.05639c0.28193,-0.11277 0.59206,-0.27254 0.93038,-0.47929c0.33832,-0.20675 0.63905,-0.36652 0.90219,-0.47929c0.63905,-0.22555 1.2969,-0.56387 1.97354,-1.01497c0.67664,-0.4511 1.2781,-0.82701 1.80438,-1.12774z" data-paper-data="{&quot;glyphName&quot;:&quot;a&quot;,&quot;glyphIndex&quot;:14,&quot;word&quot;:2}"></path><path d="M436.24095,322.65738c-0.07518,0.03759 -0.05639,0.05639 0.05639,0.05639c0.11277,0 0.18796,0.03759 0.22555,0.11277c0.07518,0.07518 0.07518,0.18796 0,0.33832c-0.07518,0.15037 -0.07518,0.24434 0,0.28193c-0.48869,0.18796 -0.89279,0.37591 -1.21232,0.56387c-0.31953,0.18796 -0.72363,0.35712 -1.21232,0.50748c-0.67664,0.18796 -1.24051,0.40411 -1.69161,0.64845c-0.4511,0.24434 -1.03376,0.46049 -1.748,0.64845c-2.10511,0.4511 -3.9001,0.93038 -5.38495,1.43787c-1.48486,0.50748 -2.66898,0.78942 -3.55238,0.8458c-0.8834,0.05639 -1.46606,-0.23495 -1.748,-0.874c-0.28193,-0.63905 -0.29133,-1.87957 -0.02819,-3.72154c0.07518,-0.67664 0.28193,-1.25931 0.62026,-1.748c0.33832,-0.48869 0.60146,-1.05256 0.78942,-1.69161c-0.11277,0.03759 -0.22555,0.07518 -0.33832,0.11277c-0.11277,0.03759 -0.22555,0.13157 -0.33832,0.28193c-0.07518,0 -0.12217,0.0094 -0.14097,0.02819c-0.0188,0.0188 -0.06578,0.02819 -0.14097,0.02819c-1.16533,1.16533 -2.33066,2.27427 -3.49599,3.32683c-0.26314,0.07518 -0.46049,0.19735 -0.59206,0.36652c-0.13157,0.16916 -0.34772,0.29133 -0.64845,0.36652c-0.07518,0.18796 -0.18796,0.35712 -0.33832,0.50748c-0.15037,0.15037 -0.30073,0.30073 -0.4511,0.4511c0,0.30073 -0.09398,0.54507 -0.28193,0.73303c-0.22555,0.63905 -0.4511,1.3063 -0.67664,2.00174c-0.22555,0.69544 -0.48869,1.36268 -0.78942,2.00174c-0.60146,0.4135 -1.07135,0.65785 -1.40967,0.73303c-0.33832,0.07518 -0.61086,0.06578 -0.81761,-0.02819c-0.20675,-0.09398 -0.35712,-0.23495 -0.4511,-0.4229c-0.09398,-0.18796 -0.17856,-0.33832 -0.25374,-0.4511c-0.07518,-0.07518 -0.0094,-0.4135 0.19735,-1.01497c0.20675,-0.60146 0.4511,-1.26871 0.73303,-2.00174c0.28193,-0.73303 0.55447,-1.42847 0.81761,-2.08632c0.26314,-0.65785 0.4323,-1.09955 0.50748,-1.32509l1.01497,-2.36825c0.11277,-0.33832 0.23495,-0.67664 0.36652,-1.01497c0.13157,-0.33832 0.27254,-0.67664 0.4229,-1.01497c0.03759,-0.11277 0.11277,-0.18796 0.22555,-0.22555c0.07518,-0.22555 0.13157,-0.4511 0.16916,-0.67664c0.03759,-0.22555 0.13157,-0.4135 0.28193,-0.56387c-0.03759,-0.11277 -0.02819,-0.18796 0.02819,-0.22555c0.05639,-0.03759 0.12217,-0.09398 0.19735,-0.16916c0.26314,-0.82701 0.57327,-1.66342 0.93038,-2.50922c0.35712,-0.8458 0.62965,-1.7198 0.81761,-2.62199c0.03759,-0.03759 0.05639,-0.07518 0.05639,-0.11277c0.18796,-0.18796 0.31953,-0.4323 0.39471,-0.73303c0.07518,-0.30073 0.16916,-0.56387 0.28193,-0.78942l0.67664,-1.748c0.30073,-0.4135 0.50748,-0.8458 0.62026,-1.2969c0.11277,-0.4511 0.28193,-0.8834 0.50748,-1.2969c0.07518,-0.30073 0.17856,-0.57327 0.31013,-0.81761c0.13157,-0.24434 0.23495,-0.51688 0.31013,-0.81761c0.18796,-0.4135 0.36652,-0.78002 0.53568,-1.09955c0.16916,-0.31953 0.31013,-0.66725 0.4229,-1.04316v-0.05639c0,-0.03759 0.0188,-0.03759 0.05639,0c0.03759,-0.18796 0.06578,-0.34772 0.08458,-0.47929c0.0188,-0.13157 0.06578,-0.27254 0.14097,-0.4229c0.03759,-0.07518 0.09398,-0.18796 0.16916,-0.33832c0.07518,-0.15037 0.15037,-0.33832 0.22555,-0.56387l0.28193,-0.56387c0.03759,-0.15037 0.05639,-0.22555 0.05639,-0.22555c0.07518,-0.30073 0.11277,-0.4511 0.11277,-0.4511c0,-0.07518 0.02819,-0.13157 0.08458,-0.16916c0.05639,-0.03759 0.10338,-0.09398 0.14097,-0.16916v-0.28193c0.03759,-0.15037 0.10338,-0.28193 0.19735,-0.39471c0.09398,-0.11277 0.14097,-0.26314 0.14097,-0.4511c0.07518,-0.18796 0.15037,-0.38531 0.22555,-0.59206c0.07518,-0.20675 0.15037,-0.4229 0.22555,-0.64845c0.18796,-0.33832 0.31013,-0.69544 0.36652,-1.07135c0.05639,-0.37591 0.19735,-0.73303 0.4229,-1.07135c0.30073,-0.07518 0.59206,-0.20675 0.874,-0.39471c0.28193,-0.18796 0.68604,-0.20675 1.21232,-0.05639c0.07518,0.07518 0.15037,0.14097 0.22555,0.19735c0.07518,0.05639 0.16916,0.08458 0.28193,0.08458c0.26314,0.15037 0.52628,0.37591 0.78942,0.67664c0.26314,0.30073 0.46049,0.63905 0.59206,1.01497c0.13157,0.37591 0.19735,0.74243 0.19735,1.09955c0,0.35712 -0.11277,0.66725 -0.33832,0.93038c-0.18796,0.52628 -0.4135,0.98677 -0.67664,1.38148c-0.26314,0.39471 -0.48869,0.8552 -0.67664,1.38148c-0.18796,0.15037 -0.30073,0.34772 -0.33832,0.59206c-0.03759,0.24434 -0.13157,0.46049 -0.28193,0.64845c-0.07518,0.22555 -0.16916,0.4135 -0.28193,0.56387c-0.11277,0.15037 -0.18796,0.33832 -0.22555,0.56387c-0.07518,0 -0.11277,0.0188 -0.11277,0.05639c0,0.03759 -0.0188,0.03759 -0.05639,0c0,0.11277 -0.0188,0.18796 -0.05639,0.22555c-0.03759,0.03759 -0.03759,0.07518 0,0.11277c-0.15037,0.15037 -0.27254,0.33832 -0.36652,0.56387c-0.09398,0.22555 -0.17856,0.37591 -0.25374,0.4511c-0.15037,0.33832 -0.30073,0.66725 -0.4511,0.98677c-0.15037,0.31953 -0.31953,0.64845 -0.50748,0.98677c-0.22555,0.30073 -0.35712,0.62026 -0.39471,0.95858c-0.07518,0.07518 -0.15037,0.15037 -0.22555,0.22555c-0.07518,0.07518 -0.11277,0.15037 -0.11277,0.22555c-0.07518,0.15037 -0.13157,0.29133 -0.16916,0.4229c-0.03759,0.13157 -0.11277,0.23495 -0.22555,0.31013c-0.03759,0.22555 -0.10338,0.40411 -0.19735,0.53568c-0.09398,0.13157 -0.17856,0.29133 -0.25374,0.47929c-0.07518,0.11277 -0.13157,0.22555 -0.16916,0.33832c-0.03759,0.11277 -0.09398,0.22555 -0.16916,0.33832c-0.07518,0.15037 -0.13157,0.30073 -0.16916,0.4511c-0.03759,0.15037 -0.13157,0.30073 -0.28193,0.4511c-0.03759,0.37591 -0.13157,0.71423 -0.28193,1.01497c-0.15037,0.30073 -0.31953,0.60146 -0.50748,0.90219c0,0.07518 -0.0094,0.11277 -0.02819,0.11277c-0.0188,0 -0.0094,0.03759 0.02819,0.11277c-0.03759,0.07518 -0.06578,0.13157 -0.08458,0.16916c-0.0188,0.03759 -0.02819,0.09398 -0.02819,0.16916c-0.22555,0.22555 -0.33832,0.54507 -0.33832,0.95858c-0.33832,0.52628 -0.61086,1.08075 -0.81761,1.66342c-0.20675,0.58267 -0.47929,1.09955 -0.81761,1.55064c-0.15037,0.4135 -0.28193,0.78942 -0.39471,1.12774c-0.11277,0.33832 -0.26314,0.67664 -0.4511,1.01497c0.33832,-0.18796 0.67664,-0.4229 1.01497,-0.70484c0.33832,-0.28193 0.65785,-0.53568 0.95858,-0.76122c0.63905,-0.56387 1.2969,-1.10894 1.97354,-1.63522c0.67664,-0.52628 1.37208,-1.03376 2.08632,-1.52245c0.33832,-0.18796 0.70484,-0.4135 1.09955,-0.67664c0.39471,-0.26314 0.79882,-0.4323 1.21232,-0.50748c0.18796,-0.07518 0.40411,-0.10338 0.64845,-0.08458c0.24434,0.0188 0.46049,0.04699 0.64845,0.08458c0.22555,0.15037 0.46049,0.32892 0.70484,0.53568c0.24434,0.20675 0.40411,0.46049 0.47929,0.76122c0.11277,0.18796 0.21615,0.31013 0.31013,0.36652c0.09398,0.05639 0.14097,0.17856 0.14097,0.36652c0,0.18796 -0.08458,0.33832 -0.25374,0.4511c-0.16916,0.11277 -0.31013,0.20675 -0.4229,0.28193c-0.07518,0.18796 -0.19735,0.31013 -0.36652,0.36652c-0.16916,0.05639 -0.31013,0.15976 -0.4229,0.31013c-0.52628,0.30073 -0.94918,0.65785 -1.26871,1.07135c-0.31953,0.4135 -0.74243,0.77062 -1.26871,1.07135c-0.30073,0.22555 -0.62026,0.50748 -0.95858,0.8458c-0.33832,0.33832 -0.64845,0.70484 -0.93038,1.09955c-0.28193,0.39471 -0.51688,0.78942 -0.70484,1.18413c-0.18796,0.39471 -0.24434,0.78002 -0.16916,1.15593c-0.07518,0.52628 0.06578,0.82701 0.4229,0.90219c0.35712,0.07518 0.79882,0.11277 1.32509,0.11277c0.75183,-0.03759 1.45666,-0.12217 2.11451,-0.25374c0.65785,-0.13157 1.34389,-0.27254 2.05812,-0.4229c1.20292,-0.26314 2.20849,-0.48869 3.0167,-0.67664c0.80821,-0.18796 1.51305,-0.36652 2.11451,-0.53568c0.60146,-0.16916 1.14653,-0.31013 1.63522,-0.4229c0.48869,-0.11277 1.03376,-0.20675 1.63522,-0.28193z" data-paper-data="{&quot;glyphName&quot;:&quot;k&quot;,&quot;glyphIndex&quot;:15,&quot;lastGlyphOfWord&quot;:true,&quot;word&quot;:2}" fill="#f277c6"></path></g><g data-paper-data="{&quot;fillRule&quot;:&quot;evenodd&quot;,&quot;isIcon&quot;:&quot;true&quot;,&quot;iconStyle&quot;:&quot;standalone&quot;,&quot;selectedEffects&quot;:{&quot;container&quot;:&quot;&quot;,&quot;transformation&quot;:&quot;&quot;,&quot;pattern&quot;:&quot;&quot;},&quot;bounds&quot;:{&quot;x&quot;:159.64359506808572,&quot;y&quot;:115,&quot;width&quot;:230.7128098638286,&quot;height&quot;:153.8103036869162},&quot;iconType&quot;:&quot;icon&quot;,&quot;rawIconId&quot;:&quot;867438&quot;,&quot;isDetailed&quot;:&quot;false&quot;,&quot;suitableAsStandaloneIcon&quot;:true}" fill-rule="evenodd"><g data-paper-data="{&quot;isPathIcon&quot;:true}"><path d="M244.23789,115c-28.2241,0 -51.26918,23.04508 -51.26918,51.27018c0,1.125 0.247,2.17501 0.32,3.28401c-19.63307,7.19903 -33.64512,25.94109 -33.64512,47.98517c0,28.2241 23.04508,51.27018 51.26918,51.27018c2.77401,0.039 5.35302,-1.418 6.75202,-3.81401c1.398,-2.39501 1.398,-5.35802 0,-7.75403c-1.399,-2.39501 -3.97801,-3.85301 -6.75202,-3.81301c-19.91207,0 -35.88913,-15.97706 -35.88913,-35.88913c0,-17.25706 12.09604,-31.48411 28.1991,-35.00712c4.09001,-0.92 6.69202,-4.94602 5.84702,-9.05303c-0.471,-2.32401 -0.72,-4.76302 -0.72,-7.20903c0,-19.91207 15.97606,-35.88913 35.88813,-35.88913c13.43805,0 25.06909,7.31603 31.24311,18.18506c1.154,2.72301 3.76901,4.54302 6.72402,4.68102c2.95501,0.137 5.72702,-1.43301 7.12903,-4.03801c1.402,-2.60401 1.186,-5.78302 -0.555,-8.17403c-8.81003,-15.50805 -25.47409,-26.03509 -44.54116,-26.03509z" fill-opacity="1" fill="#6acfff"></path><path d="M300.59009,141.09809c0.124,-3.95401 3.22801,-7.16903 7.17403,-7.43303c0.779,-0.064 1.56201,-0.011 2.32401,0.16c18.13106,3.38201 32.36511,16.51106 38.37113,33.56612c23.76508,4.44302 41.89715,25.15309 41.89715,50.14818c0,28.2241 -23.04508,51.27018 -51.26918,51.27018h-102.53936c-2.77401,0.039 -5.35302,-1.418 -6.75202,-3.81401c-1.398,-2.39501 -1.398,-5.35802 0,-7.75403c1.399,-2.39501 3.97801,-3.85301 6.75202,-3.81301h102.53936c19.91207,0 35.88913,-15.97706 35.88913,-35.88913c0,-18.82707 -14.25505,-34.01812 -32.60511,-35.64813c-3.31201,-0.296 -6.06002,-2.68801 -6.80902,-5.92802c-3.22601,-13.72805 -14.33505,-24.39609 -28.2781,-26.99709c-3.92301,-0.511 -6.81802,-3.91401 -6.69402,-7.86803z" fill="#f277c6"></path></g></g></g></g></svg>